 <svg  version="1.0" xmlns="http://www.w3.org/2000/svg"  width="1122.000000pt" height="1110.000000pt" viewBox="0 0 1122.000000 1110.000000"  preserveAspectRatio="xMidYMid meet">  <g transform="translate(0.000000,1110.000000) scale(0.100000,-0.100000)" fill="#ffffff" stroke="none"> <path d="M6780 10155 c-19 -7 -51 -14 -71 -14 -19 -1 -44 -8 -55 -16 -10 -8 -27 -15 -37 -15 -65 -1 -277 -158 -277 -205 0 -42 20 -38 69 13 27 28 67 61 90 73 22 11 44 25 47 30 3 5 13 9 23 9 10 0 24 7 31 15 7 8 22 15 34 15 12 0 31 7 42 15 10 8 38 15 62 15 23 0 59 7 79 15 24 10 70 15 143 15 73 0 119 -5 143 -15 20 -8 49 -15 64 -15 15 0 37 -7 47 -15 11 -8 32 -15 47 -15 15 0 31 -4 34 -10 3 -5 19 -10 34 -10 15 0 36 -7 47 -15 10 -8 32 -15 47 -15 15 0 30 -7 33 -15 4 -8 17 -15 29 -15 13 0 27 -4 30 -10 4 -6 -7 -10 -24 -10 -17 0 -31 4 -31 8 0 5 -44 13 -97 19 -77 9 -114 9 -173 -2 -101 -18 -150 -31 -163 -44 -6 -6 -17 -11 -23 -11 -7 0 -28 -10 -48 -22 -26 -17 -35 -30 -36 -50 0 -34 10 -35 58 -3 102 67 347 89 512 46 46 -12 90 -26 96 -31 7 -6 18 -4 30 5 10 8 23 15 27 15 5 0 44 -36 88 -80 43 -44 85 -80 94 -80 31 0 26 29 -12 72 -127 141 -200 181 -573 317 -19 7 -51 16 -70 20 -19 4 -45 13 -57 19 -31 17 -287 15 -333 -3z"/> <path d="M5415 10074 c-55 -14 -111 -27 -125 -31 -14 -3 -34 -12 -45 -19 -11 -8 -27 -14 -37 -14 -40 0 -204 -116 -278 -197 -81 -88 -167 -226 -259 -418 -34 -71 -72 -149 -83 -173 -18 -37 -19 -45 -7 -52 10 -7 20 -1 36 18 12 15 22 32 23 37 0 15 188 385 200 395 3 3 17 23 30 45 34 55 55 81 125 149 99 97 266 197 265 159 0 -5 -22 -24 -48 -43 -93 -69 -382 -369 -382 -397 0 -28 27 -8 134 100 129 131 270 260 329 301 23 16 76 45 117 65 l75 36 145 0 c203 -1 262 -25 380 -153 72 -78 73 -80 114 -139 28 -42 49 -53 61 -33 14 23 -104 191 -194 277 -110 104 -355 141 -576 87z"/> <path d="M6784 9975 c-10 -8 -27 -15 -37 -15 -11 0 -31 -6 -45 -13 -15 -8 -42 -21 -60 -30 -19 -9 -40 -17 -47 -17 -8 0 -20 -6 -27 -12 -7 -7 -31 -22 -53 -33 -99 -50 -210 -139 -265 -213 -14 -19 -31 -40 -37 -47 -15 -16 -17 -61 -4 -69 9 -6 61 48 61 62 0 35 297 262 341 262 6 0 23 7 37 14 15 8 45 22 67 31 86 36 145 66 145 74 0 23 -49 26 -76 6z"/> <path d="M6854 9856 c-7 -19 3 -36 22 -36 10 0 14 8 12 22 -4 26 -26 36 -34 14z"/> <path d="M6872 9798 c-6 -7 -28 -22 -49 -33 -34 -18 -99 -60 -193 -125 -49 -34 -175 -162 -207 -211 -29 -44 -51 -47 -70 -9 -17 34 -75 82 -86 71 -15 -15 2 -47 43 -85 21 -19 40 -41 41 -48 3 -20 -12 -68 -22 -68 -5 0 -9 -5 -9 -11 0 -10 -23 -64 -50 -120 -13 -26 -38 -148 -55 -269 -19 -130 -18 -331 2 -337 7 -3 13 24 17 84 8 123 24 224 40 248 7 11 15 62 18 115 3 53 10 104 16 115 33 61 52 108 52 128 0 12 12 33 25 46 14 13 25 31 25 40 1 26 157 198 236 259 50 39 161 115 219 152 34 21 55 40 53 50 -4 19 -32 24 -46 8z"/> <path d="M7350 9743 c-8 -2 -24 -8 -35 -13 -11 -5 -41 -11 -67 -15 -26 -3 -50 -10 -53 -16 -4 -5 -14 -9 -23 -9 -27 0 -162 -43 -162 -52 0 -4 -8 -8 -17 -8 -10 -1 -36 -12 -58 -25 -22 -14 -47 -28 -55 -32 -36 -17 -154 -103 -214 -156 -37 -32 -94 -97 -127 -143 -34 -46 -65 -84 -70 -84 -5 0 -9 -13 -9 -29 0 -17 -4 -32 -9 -35 -13 -9 -51 -84 -51 -104 0 -9 -7 -26 -15 -36 -20 -27 -21 -169 -1 -185 20 -17 26 -2 30 66 4 74 32 161 62 194 13 14 24 34 24 45 0 34 81 146 169 235 123 123 254 208 401 258 36 13 72 26 80 31 9 4 35 11 58 15 23 4 44 11 48 16 3 5 15 9 27 9 12 0 35 7 51 15 15 8 36 15 46 15 10 0 23 6 29 14 19 22 -21 42 -59 29z"/> <path d="M8310 9744 c-57 -11 -156 -38 -164 -46 -6 -4 -17 -8 -25 -8 -19 0 -197 -89 -271 -135 -78 -49 -155 -124 -142 -137 8 -8 22 -2 49 19 72 57 299 183 329 183 7 0 25 7 40 15 16 8 37 15 46 15 9 0 19 4 22 9 3 5 33 12 66 16 33 4 63 11 66 16 9 16 201 10 257 -7 139 -43 207 -97 496 -393 134 -138 250 -251 257 -251 8 0 14 -4 14 -10 0 -5 7 -10 15 -10 34 0 10 38 -87 139 -57 58 -164 171 -238 250 -129 138 -255 251 -279 251 -6 0 -11 4 -11 8 0 4 -12 13 -27 19 -16 7 -50 22 -78 34 -41 17 -75 22 -180 24 -71 2 -141 1 -155 -1z"/> <path d="M5315 9724 c-104 -38 -217 -106 -265 -161 -46 -52 -54 -89 -17 -77 12 4 27 14 34 23 30 42 41 51 88 76 77 41 218 85 271 85 32 0 93 -31 120 -62 39 -41 80 -141 98 -233 19 -94 39 -168 62 -223 15 -36 18 -72 7 -72 -5 0 -32 23 -62 50 -56 52 -78 61 -88 34 -4 -11 18 -39 71 -91 42 -41 76 -79 76 -83 0 -5 7 -15 15 -23 16 -17 135 -249 135 -264 0 -6 9 -31 20 -56 49 -110 105 -343 131 -537 10 -84 10 -339 -1 -410 -5 -30 -16 -99 -25 -153 -9 -55 -14 -101 -12 -104 15 -14 47 22 57 64 26 110 49 295 49 398 0 181 -50 496 -105 665 -15 46 -19 56 -48 123 -9 21 -16 42 -16 48 0 5 -27 65 -61 132 -57 113 -77 175 -99 302 -36 210 -64 323 -98 395 -34 73 -88 131 -144 155 -46 19 -140 18 -193 -1z"/> <path d="M7470 9670 c-8 -5 -31 -10 -50 -10 -42 0 -65 -13 -58 -32 5 -11 37 -13 164 -12 232 3 216 2 212 22 -3 17 -9 18 -198 37 -31 3 -62 1 -70 -5z"/> <path d="M6090 9641 c-5 -11 -16 -25 -23 -33 -14 -14 -22 -27 -76 -133 -25 -48 -31 -69 -23 -77 16 -16 37 4 66 61 33 66 72 126 97 150 13 12 19 26 16 35 -9 22 -44 20 -57 -3z"/> <path d="M5724 9559 c-3 -6 9 -27 27 -47 19 -20 39 -42 44 -49 6 -7 15 -18 20 -25 33 -41 118 -195 150 -273 9 -22 23 -53 31 -70 7 -16 23 -59 34 -95 11 -36 24 -74 30 -85 25 -52 67 -268 81 -420 6 -74 16 -132 20 -129 5 3 9 14 9 24 0 37 20 30 26 -9 3 -22 13 -42 20 -45 8 -3 14 -19 14 -36 0 -18 6 -33 15 -36 9 -4 15 -19 15 -41 0 -19 7 -41 15 -49 8 -9 15 -30 16 -47 2 -94 -4 -175 -16 -211 -7 -23 -16 -57 -20 -76 -10 -51 -37 -134 -46 -144 -5 -6 -9 -16 -9 -24 0 -14 -20 -65 -46 -116 -10 -19 -11 -33 -5 -39 24 -24 47 9 108 153 8 19 19 44 24 55 11 23 25 88 43 195 12 70 14 73 24 48 6 -16 16 -28 22 -28 5 0 10 -13 10 -29 0 -17 5 -33 10 -36 6 -3 10 -15 10 -27 0 -11 6 -34 14 -51 7 -18 19 -51 25 -75 13 -45 34 -63 53 -44 8 8 6 18 -6 36 -9 14 -16 34 -16 44 0 11 -7 25 -15 32 -8 7 -15 25 -15 40 0 15 -7 33 -15 40 -8 7 -15 23 -15 37 0 13 -7 26 -15 29 -8 4 -15 16 -15 29 0 12 -7 36 -15 51 -12 24 -15 85 -15 349 0 252 -3 337 -16 400 -9 44 -18 90 -20 103 -2 12 -9 22 -16 22 -8 0 -9 -41 -4 -147 9 -210 16 -552 10 -527 -3 12 -14 30 -25 40 -11 10 -19 30 -19 50 0 18 -4 36 -10 39 -5 3 -10 20 -10 37 0 22 -6 31 -20 35 -11 3 -22 15 -25 27 -2 11 -7 35 -10 51 -3 17 -10 68 -15 115 -13 128 -49 301 -75 357 -8 17 -15 38 -15 47 0 16 -3 23 -33 84 -9 19 -17 39 -17 45 0 26 -116 244 -147 275 -7 7 -13 17 -13 21 0 12 -116 131 -128 131 -6 0 -14 -5 -18 -11z"/> <path d="M8260 9520 c-19 -4 -60 -13 -90 -18 -30 -5 -71 -15 -90 -22 -66 -25 -105 -41 -120 -51 -8 -5 -23 -12 -32 -15 -30 -10 -21 -34 12 -34 17 0 30 5 30 10 0 6 8 10 18 10 9 0 30 7 46 15 15 8 39 15 52 15 14 0 41 7 62 16 55 25 406 24 476 0 27 -9 55 -15 63 -12 20 8 15 34 -9 50 -46 28 -343 54 -418 36z"/> <path d="M5140 9421 c-57 -36 -130 -116 -175 -193 -19 -33 -35 -61 -35 -64 0 -3 -13 -32 -30 -66 -16 -33 -30 -68 -30 -77 0 -9 -4 -21 -9 -27 -9 -10 -51 -140 -51 -160 0 -6 -7 -25 -15 -40 -8 -16 -15 -41 -15 -56 0 -15 -4 -29 -9 -32 -5 -4 -12 -29 -16 -56 -4 -28 -11 -50 -16 -50 -5 0 -9 -13 -9 -30 0 -17 5 -30 13 -30 17 0 57 73 57 104 0 14 4 27 9 30 5 3 12 23 16 43 4 21 10 43 15 48 4 6 17 44 29 85 13 41 26 84 31 95 5 11 19 46 30 77 47 127 128 255 207 328 54 49 56 50 119 50 50 0 66 4 71 16 9 24 -15 34 -82 34 -49 0 -69 -6 -105 -29z"/> <path d="M3430 9421 c-32 -12 -45 -22 -45 -36 0 -17 5 -19 40 -15 22 3 82 5 133 4 85 -1 99 -4 159 -35 81 -42 175 -131 234 -224 42 -64 56 -94 95 -195 63 -166 111 -588 77 -680 -9 -24 -21 27 -22 94 -1 33 -5 73 -11 90 -5 17 -16 56 -25 86 -40 139 -106 252 -208 353 -42 42 -84 77 -92 77 -8 0 -15 3 -15 8 0 7 -23 18 -132 66 -20 9 -47 16 -60 16 -13 0 -29 5 -35 11 -15 15 -203 17 -234 3 -13 -6 -36 -16 -51 -23 -16 -6 -28 -15 -28 -21 0 -19 48 -22 85 -4 35 16 43 16 149 0 205 -31 313 -88 437 -232 14 -16 28 -36 32 -44 4 -8 16 -28 27 -45 11 -16 22 -37 26 -45 5 -15 17 -43 48 -113 9 -21 16 -46 16 -56 0 -10 6 -37 14 -59 8 -23 19 -100 25 -172 16 -197 -4 -409 -55 -570 -8 -25 -14 -54 -14 -65 -1 -11 -7 -29 -15 -39 -8 -11 -15 -31 -15 -45 0 -14 -7 -35 -15 -45 -8 -11 -15 -29 -15 -40 0 -12 -7 -30 -15 -40 -8 -11 -15 -28 -15 -38 0 -10 -4 -26 -10 -36 -5 -9 -19 -39 -30 -67 -12 -27 -34 -77 -50 -110 -125 -262 -129 -275 -105 -275 8 0 20 10 25 23 6 12 19 36 30 52 22 33 40 72 40 85 0 5 3 10 8 12 7 3 83 152 120 238 11 25 35 90 53 145 17 55 36 109 40 120 8 20 15 43 45 175 9 36 19 106 24 155 4 50 9 92 9 95 1 2 7 -2 13 -8 16 -16 14 -172 -2 -247 -6 -27 -15 -74 -20 -103 -5 -29 -13 -58 -18 -65 -5 -7 -12 -33 -14 -59 -4 -36 -2 -48 8 -48 17 0 34 32 34 64 0 14 4 27 9 31 6 3 13 27 17 53 3 26 10 52 14 57 32 41 52 610 30 850 -19 204 -43 362 -59 378 -6 6 -11 23 -11 37 0 14 -7 35 -15 46 -8 10 -15 27 -15 37 0 20 -56 128 -106 202 -42 64 -134 152 -199 191 -101 61 -250 81 -345 45z"/> <path d="M7800 9409 c-113 -46 -304 -294 -368 -476 -12 -37 -48 -46 -58 -15 -22 66 -107 174 -167 210 -66 40 -162 36 -229 -10 -15 -10 -40 -46 -57 -80 l-31 -61 0 -237 c0 -130 3 -240 7 -243 3 -4 14 0 23 8 16 14 18 11 24 -47 3 -34 11 -67 16 -72 6 -6 10 -30 10 -54 0 -24 6 -58 14 -75 8 -18 16 -43 18 -57 2 -14 11 -26 21 -28 14 -3 17 4 17 47 0 27 -4 53 -10 56 -5 3 -10 25 -10 48 0 23 -5 60 -11 82 -6 22 -14 60 -18 85 -9 57 -18 72 -41 65 -16 -5 -18 1 -14 77 2 46 6 147 8 226 4 145 9 163 51 206 11 10 33 16 65 16 47 0 52 -3 117 -67 38 -38 82 -84 98 -103 15 -19 45 -54 66 -77 l38 -41 -14 -50 c-7 -28 -16 -56 -21 -63 -24 -39 -33 -265 -16 -414 12 -113 17 -131 39 -139 26 -10 35 5 29 48 -22 143 -28 264 -18 359 12 118 32 197 48 197 6 0 24 -16 38 -35 54 -70 78 -28 26 43 -31 43 -41 104 -19 117 5 4 15 17 20 28 5 12 18 36 29 52 11 17 24 39 30 50 83 156 249 350 307 357 24 3 28 7 26 32 -1 16 -3 30 -5 31 -10 10 -57 13 -78 4z"/> <path d="M7275 9384 c-11 -3 -31 -10 -45 -16 -31 -14 -193 -109 -200 -117 -3 -4 -39 -33 -80 -66 -130 -103 -281 -262 -331 -347 -24 -43 -48 -76 -54 -75 -5 2 -10 39 -12 83 -3 90 -24 200 -38 197 -17 -4 -17 -105 -1 -163 31 -115 40 -196 25 -232 -17 -42 -16 -213 3 -264 12 -33 11 -37 -11 -53 -24 -18 -24 -21 -17 -127 3 -60 11 -127 17 -149 6 -22 16 -61 22 -87 7 -25 15 -50 20 -54 4 -4 7 -18 7 -31 0 -34 42 -104 60 -101 20 4 25 42 7 60 -8 8 -17 32 -19 54 -3 21 -10 53 -16 69 -28 81 -59 225 -54 252 6 31 20 29 28 -4 3 -16 9 -37 14 -48 4 -11 13 -33 19 -48 6 -16 17 -27 24 -25 20 7 19 64 -2 112 -12 25 -21 55 -21 68 0 13 -6 30 -12 36 -20 20 -18 359 1 398 26 51 85 148 106 174 37 45 221 230 229 230 5 0 25 17 45 38 41 42 100 80 206 132 65 32 77 35 170 36 127 2 125 2 125 17 0 32 -149 67 -215 51z"/> <path d="M8353 9335 c-85 -14 -133 -27 -193 -52 -19 -8 -51 -22 -70 -30 -121 -51 -236 -129 -330 -223 -94 -94 -130 -135 -130 -149 0 -6 -3 -11 -8 -11 -4 0 -18 -24 -31 -52 -13 -29 -28 -62 -33 -74 -12 -25 -7 -109 7 -109 5 0 14 14 19 30 29 96 61 154 132 240 63 76 145 150 239 212 53 36 78 50 149 85 42 21 171 59 239 69 39 6 114 9 165 6 83 -5 102 -10 176 -47 63 -31 103 -60 161 -118 71 -70 265 -302 265 -317 0 -3 11 -18 25 -33 43 -46 28 -59 -17 -15 -86 83 -142 129 -226 190 -98 70 -170 107 -287 149 -72 26 -92 29 -200 28 -85 0 -135 -6 -170 -18 -62 -21 -116 -46 -132 -60 -6 -6 -42 -38 -79 -71 -261 -234 -317 -323 -343 -551 -13 -109 -14 -413 -2 -432 5 -8 17 -12 27 -10 18 3 19 20 26 268 5 212 9 271 22 295 9 17 16 40 16 52 0 12 4 24 9 28 6 3 20 26 33 52 30 60 197 230 257 263 12 6 26 21 30 33 5 13 26 31 47 41 22 11 48 23 58 29 11 5 77 12 146 15 123 5 130 4 226 -28 191 -63 327 -147 519 -322 104 -95 129 -111 137 -86 5 14 17 2 98 -92 30 -36 63 -73 73 -82 45 -47 51 10 6 62 -66 75 -75 87 -114 135 -22 28 -42 52 -45 55 -20 20 -89 113 -154 209 -43 62 -88 125 -99 140 -45 56 -217 220 -238 226 -13 4 -29 14 -37 21 -7 8 -21 14 -31 14 -9 0 -22 5 -27 10 -12 12 -166 41 -204 39 -14 -1 -62 -7 -107 -14z"/> <path d="M6410 9278 c0 -25 25 -68 40 -68 12 0 -15 83 -28 88 -7 2 -12 -7 -12 -20z"/> <path d="M4684 9230 c-17 -16 -44 -48 -60 -72 -16 -24 -31 -45 -34 -48 -13 -11 -70 -111 -90 -157 -11 -26 -27 -60 -35 -75 -8 -14 -15 -33 -15 -42 0 -9 -4 -16 -10 -16 -5 0 -10 -14 -10 -30 0 -18 -6 -33 -15 -36 -8 -4 -15 -16 -15 -29 0 -12 -7 -28 -15 -35 -8 -7 -15 -22 -15 -34 0 -11 -7 -30 -15 -40 -8 -11 -15 -32 -15 -48 0 -15 -4 -28 -10 -28 -5 0 -10 -15 -10 -32 l0 -33 20 25 c11 14 20 30 20 37 0 13 26 73 92 213 90 191 113 235 120 238 4 2 8 8 8 14 0 6 17 38 37 72 40 66 39 64 83 116 28 33 40 70 22 70 -5 0 -22 -13 -38 -30z"/> <path d="M3285 9173 c-92 -19 -207 -59 -304 -106 -145 -70 -261 -168 -416 -352 -27 -32 -60 -70 -73 -84 -23 -25 -26 -51 -6 -58 7 -2 36 24 65 58 94 108 251 259 319 306 59 42 136 82 245 127 22 9 47 21 56 26 9 4 42 11 75 15 64 8 104 27 104 50 0 8 -4 15 -9 15 -5 0 -15 2 -23 4 -7 2 -22 2 -33 -1z"/> <path d="M5331 9123 c-49 -24 -128 -130 -186 -248 -9 -16 -19 -37 -24 -45 -31 -54 -35 -70 -19 -87 20 -19 48 -11 48 14 0 23 28 76 96 180 75 115 117 153 148 130 31 -23 63 -194 86 -452 10 -112 27 -221 36 -237 9 -14 21 -9 27 13 9 34 -12 489 -26 560 -21 105 -81 189 -134 189 -10 0 -33 -8 -52 -17z"/> <path d="M9224 8925 c-8 -20 -1 -28 49 -53 25 -12 61 -42 81 -66 36 -44 136 -200 136 -212 0 -3 6 -20 14 -37 39 -91 51 -128 98 -290 15 -48 32 -72 46 -63 16 10 14 72 -3 121 -8 22 -15 49 -15 60 0 31 -37 130 -83 225 -94 193 -144 257 -235 303 -61 31 -80 33 -88 12z"/> <path d="M8396 8861 c-21 -10 -41 -23 -45 -28 -3 -5 -28 -20 -56 -34 -61 -30 -61 -29 -146 -109 -38 -36 -69 -70 -69 -77 0 -6 -4 -13 -9 -15 -10 -3 -56 -86 -108 -193 -19 -38 -42 -85 -51 -102 -15 -30 -15 -34 0 -49 15 -15 17 -15 29 7 6 13 15 26 18 29 3 3 31 54 61 115 70 139 117 210 178 267 64 60 90 74 98 53 9 -23 27 -17 49 17 35 54 77 70 175 65 72 -4 96 -10 155 -39 105 -53 227 -150 304 -242 60 -71 225 -305 244 -346 4 -8 16 -28 27 -45 11 -16 23 -37 27 -45 3 -8 43 -75 87 -149 45 -73 87 -143 93 -155 46 -79 111 -161 129 -161 27 0 21 38 -14 84 -15 20 -32 45 -39 56 -7 11 -47 78 -90 150 -95 158 -99 165 -113 190 -6 11 -19 34 -30 50 -11 17 -23 37 -27 45 -4 8 -14 26 -24 40 -9 14 -55 84 -101 155 -158 244 -299 374 -491 453 -82 34 -203 40 -261 13z"/> <path d="M4609 8853 c-39 -49 -87 -138 -147 -273 -8 -19 -19 -43 -23 -52 -5 -10 -9 -25 -9 -34 0 -9 -7 -30 -15 -47 -17 -37 -33 -101 -44 -170 -4 -26 -13 -53 -19 -59 -15 -15 -16 -94 -2 -103 17 -11 41 16 34 38 -3 10 1 36 9 56 19 47 47 144 47 163 0 9 7 29 15 44 8 16 15 39 15 51 0 12 4 24 9 27 5 4 12 24 16 46 4 22 11 40 15 40 5 0 12 16 16 35 3 19 10 35 14 35 5 0 11 14 15 30 4 17 10 30 15 30 4 0 10 8 14 18 5 16 19 37 59 95 29 41 -3 68 -34 30z"/> <path d="M7032 8854 c-18 -12 -22 -25 -22 -64 0 -27 5 -52 10 -55 6 -3 10 -20 10 -37 0 -16 7 -42 15 -56 8 -15 19 -46 25 -68 10 -42 35 -63 53 -45 6 6 5 21 -3 43 -7 18 -18 47 -25 63 -25 66 -44 129 -39 137 14 23 36 -2 84 -97 52 -103 104 -175 127 -175 26 0 33 27 17 66 -21 53 -41 93 -64 129 -11 17 -23 37 -27 45 -3 8 -9 17 -12 20 -4 3 -17 21 -31 42 -22 33 -66 68 -87 68 -5 0 -19 -7 -31 -16z"/> <path d="M5288 8833 c-30 -32 -88 -151 -88 -181 0 -31 11 -52 26 -52 16 0 26 22 44 92 13 49 41 85 59 73 6 -3 11 -27 11 -53 0 -42 14 -169 26 -229 3 -14 12 -23 23 -23 27 0 35 -42 16 -86 -8 -20 -15 -44 -15 -54 0 -46 -74 -258 -130 -375 -42 -86 -130 -232 -165 -272 -36 -42 -85 -109 -85 -116 0 -4 10 -7 23 -7 14 1 33 16 54 43 18 24 44 57 58 73 136 156 282 480 309 689 7 57 -7 150 -27 170 -12 12 -17 34 -17 78 0 34 -7 97 -14 140 -20 115 -56 144 -108 90z"/> <path d="M3080 8813 c-93 -16 -346 -168 -474 -285 -88 -80 -200 -208 -263 -300 -66 -98 -173 -316 -173 -353 0 -9 -5 -26 -12 -38 -30 -57 -42 -327 -15 -354 26 -27 37 -5 38 75 1 140 22 269 55 349 8 17 14 35 14 40 0 12 63 136 78 151 6 7 12 18 12 23 0 14 83 132 139 199 157 186 333 316 556 410 28 12 59 25 70 30 11 5 38 11 60 12 32 2 40 7 40 23 0 17 -7 20 -50 21 -27 1 -61 0 -75 -3z"/> <path d="M3320 8723 c-14 -3 -29 -9 -34 -14 -6 -5 -17 -9 -25 -9 -27 0 -121 -54 -127 -73 -8 -25 16 -40 36 -23 53 46 184 75 256 57 85 -22 177 -107 226 -211 54 -115 70 -217 75 -479 3 -178 1 -237 -11 -292 -9 -37 -16 -85 -16 -106 0 -22 -4 -43 -10 -49 -5 -5 -14 -37 -19 -69 -11 -74 -31 -128 -58 -159 -11 -13 -45 -54 -74 -92 -30 -38 -56 -71 -59 -74 -3 -3 -30 -34 -60 -70 -111 -130 -230 -238 -412 -374 l-36 -27 -36 58 c-50 83 -159 197 -240 251 -38 26 -69 52 -70 57 -1 6 19 13 44 16 64 8 160 43 273 100 118 59 158 84 262 162 133 101 365 339 365 376 0 5 7 11 15 15 17 6 19 24 5 46 -11 17 -21 8 -107 -100 -111 -140 -328 -324 -473 -401 -25 -13 -47 -26 -50 -29 -6 -6 -64 -34 -115 -55 -22 -9 -53 -22 -70 -29 -16 -8 -50 -21 -75 -31 -25 -9 -60 -23 -78 -31 -47 -20 -66 -18 -134 16 -33 17 -70 30 -83 30 -12 0 -39 7 -58 15 -25 10 -71 15 -147 15 -76 0 -122 -5 -147 -15 -19 -8 -44 -15 -53 -15 -23 0 -113 -45 -130 -65 -7 -8 -10 -22 -6 -30 6 -17 42 -20 51 -5 19 31 200 81 289 79 65 -1 231 -33 249 -48 24 -20 11 -31 -36 -31 -50 -1 -150 -32 -145 -45 6 -18 180 5 203 26 5 5 30 9 56 9 34 0 53 -6 71 -22 30 -28 85 -68 92 -68 12 0 158 -156 186 -198 41 -62 40 -90 -2 -94 -18 -2 -33 -7 -33 -13 0 -14 44 -19 59 -6 20 17 44 3 51 -30 4 -16 11 -31 16 -34 5 -4 9 -19 9 -34 0 -15 7 -36 15 -47 8 -10 15 -36 15 -57 0 -21 7 -54 16 -75 19 -46 33 -455 15 -466 -17 -11 -31 29 -46 131 -15 107 -36 197 -48 209 -4 4 -7 16 -7 27 0 10 -6 31 -14 45 -7 15 -24 49 -37 75 -38 76 -52 102 -59 107 -4 3 -11 12 -16 21 -38 68 -194 228 -294 302 -81 60 -182 117 -205 117 -8 0 -32 9 -52 20 -49 26 -106 27 -101 3 2 -12 16 -20 40 -24 20 -3 43 -10 50 -16 7 -6 26 -13 42 -17 33 -8 76 -35 76 -47 0 -5 -9 -9 -21 -9 -12 0 -19 -5 -16 -12 2 -7 20 -13 40 -13 23 0 37 -5 37 -12 0 -7 12 -16 28 -19 54 -14 164 -100 247 -194 116 -133 175 -236 220 -388 14 -48 31 -103 37 -122 41 -128 41 -382 -1 -512 -23 -73 -71 -215 -83 -245 -11 -29 -10 -34 7 -47 26 -19 16 -40 -81 -167 -72 -96 -88 -136 -58 -146 10 -3 81 87 169 215 64 92 165 259 165 271 0 5 8 24 17 43 9 18 22 45 30 60 7 14 13 37 13 50 0 12 7 32 15 42 8 11 15 34 15 51 0 17 5 36 12 43 38 38 39 395 1 421 -22 15 -72 143 -83 211 -18 106 -36 173 -66 236 -21 44 -23 58 -14 69 7 8 19 15 27 15 8 0 44 21 81 47 129 90 307 268 433 435 35 46 69 89 76 96 6 7 33 43 58 81 36 53 47 80 50 117 2 27 8 62 14 77 6 16 11 43 11 60 0 18 7 55 16 82 20 63 23 519 4 600 -6 28 -15 68 -20 90 -30 145 -132 299 -231 347 -99 48 -126 54 -199 41z m-181 -2702 c11 -88 2 -216 -21 -291 -6 -19 -15 -51 -19 -70 -7 -37 -23 -84 -45 -135 -7 -16 -20 -48 -29 -70 -31 -74 -56 -124 -74 -147 -10 -13 -20 -31 -24 -40 -3 -10 -11 -18 -17 -18 -15 0 -12 36 5 50 8 7 15 20 15 29 0 17 24 96 45 146 13 33 73 258 99 371 10 43 16 117 16 185 0 111 0 113 19 94 12 -13 22 -48 30 -104z"/> <path d="M5666 8681 c-3 -5 1 -22 9 -37 8 -16 15 -36 15 -45 0 -9 3 -19 7 -23 9 -8 27 -64 51 -151 12 -44 16 -105 16 -230 0 -166 -6 -213 -39 -290 -7 -16 -21 -52 -31 -80 -10 -27 -24 -59 -31 -70 -7 -11 -13 -27 -13 -37 0 -10 -4 -18 -10 -18 -5 0 -10 -9 -10 -19 0 -11 -7 -26 -15 -35 -27 -26 -16 -85 12 -68 9 6 78 143 143 287 84 184 84 495 0 690 -36 85 -45 102 -58 118 -16 18 -38 22 -46 8z"/> <path d="M8633 8591 c-48 -27 -62 -40 -79 -77 -18 -37 -12 -54 17 -54 13 0 24 10 31 30 12 37 35 50 85 50 39 0 72 -17 108 -55 33 -36 89 -106 109 -139 22 -35 116 -222 116 -230 0 -3 21 -50 46 -103 25 -54 57 -123 71 -153 13 -30 29 -62 34 -70 5 -8 12 -22 15 -30 46 -117 109 -235 125 -235 21 0 23 35 5 72 -8 18 -22 49 -31 68 -8 19 -22 51 -30 70 -9 19 -22 49 -30 67 -8 18 -37 96 -65 173 -76 206 -85 230 -130 325 -64 137 -162 245 -264 289 -58 25 -90 26 -133 2z"/> <path d="M5057 8573 c-4 -3 -7 -61 -7 -129 0 -122 -13 -204 -47 -289 -17 -43 -136 -287 -156 -320 -7 -10 -22 -36 -34 -57 -42 -69 -20 -110 24 -45 96 143 192 328 239 457 21 60 33 353 14 375 -14 16 -23 19 -33 8z"/> <path d="M3344 8472 c-28 -11 -64 -27 -80 -37 -33 -21 -164 -151 -164 -163 0 -5 -14 -22 -31 -40 -33 -34 -36 -67 -5 -67 12 0 33 20 54 50 101 144 274 244 351 203 47 -25 61 -72 61 -198 0 -63 -5 -135 -11 -160 -31 -127 -37 -172 -22 -177 20 -8 30 5 43 57 6 25 18 72 26 105 21 83 33 199 26 265 -14 148 -112 212 -248 162z"/> <path d="M8332 8405 c-16 -14 -40 -44 -52 -68 -21 -39 -23 -55 -22 -232 0 -152 3 -198 16 -229 9 -21 16 -54 16 -73 0 -19 5 -43 10 -53 6 -11 17 -54 25 -97 8 -43 22 -107 31 -143 8 -36 20 -90 25 -120 10 -55 31 -90 55 -90 22 0 26 20 10 45 -9 13 -16 43 -16 65 0 22 -7 57 -15 77 -8 19 -15 51 -15 70 0 18 -7 50 -15 70 -8 19 -15 52 -15 72 0 20 -7 49 -15 65 -8 15 -15 45 -15 66 0 21 -7 57 -15 80 -22 63 -21 334 2 392 23 62 40 77 87 80 33 2 41 7 41 23 0 17 -8 20 -46 23 -38 2 -52 -2 -77 -23z"/> <path d="M5227 8343 c-9 -27 -19 -73 -22 -103 -4 -30 -10 -64 -15 -75 -5 -11 -19 -54 -31 -95 -31 -106 -86 -213 -169 -331 -14 -20 -32 -47 -40 -59 -8 -12 -41 -56 -72 -98 -31 -42 -54 -80 -52 -84 14 -22 51 -5 76 35 15 23 37 53 48 67 75 92 167 228 206 305 29 56 94 257 94 291 1 16 9 64 19 106 19 81 18 88 -9 88 -10 0 -22 -17 -33 -47z"/> <path d="M3040 8320 c-8 -5 -41 -12 -73 -16 -31 -4 -60 -11 -63 -15 -3 -5 -13 -9 -22 -9 -9 -1 -35 -9 -57 -20 -22 -11 -43 -19 -47 -20 -10 0 -107 -60 -138 -85 -103 -83 -296 -305 -286 -330 9 -25 21 -18 77 47 145 166 277 285 337 303 12 3 22 11 22 16 0 5 8 9 18 9 10 0 26 6 37 14 19 13 51 22 175 50 47 11 55 16 55 36 0 27 -13 34 -35 20z"/> <path d="M5537 8324 c-4 -4 -7 -55 -8 -113 0 -113 -38 -330 -69 -396 -5 -11 -18 -42 -30 -70 -29 -69 -84 -179 -91 -185 -11 -9 -49 -84 -49 -97 0 -19 33 -16 51 5 18 21 107 167 141 232 53 100 90 237 109 400 10 88 10 116 -2 165 -13 56 -33 78 -52 59z"/> <path d="M8515 8256 c-29 -44 -49 -482 -24 -528 11 -21 42 -24 57 -5 20 24 32 160 24 285 -4 68 -3 126 1 129 22 13 52 -38 58 -100 13 -114 21 -142 63 -223 31 -61 46 -80 65 -82 21 -3 23 -1 18 25 -11 55 -29 129 -43 179 -8 28 -14 62 -14 77 0 14 -4 28 -9 31 -5 3 -12 21 -15 40 -4 20 -13 48 -21 63 -8 15 -15 32 -15 36 0 5 -14 29 -32 53 -26 37 -37 44 -64 44 -24 0 -38 -7 -49 -24z"/> <path d="M3389 8217 c-38 -37 -69 -76 -90 -115 -11 -20 -24 -44 -29 -52 -27 -46 -40 -87 -35 -111 4 -17 1 -31 -7 -38 -20 -18 -300 -220 -374 -271 -36 -25 -71 -49 -77 -55 -45 -38 -266 -172 -367 -222 -36 -18 -94 -39 -130 -46 -55 -11 -66 -16 -68 -35 -3 -20 1 -22 42 -22 25 0 48 5 51 10 3 6 18 10 32 10 13 0 39 7 56 16 18 9 39 20 47 25 159 82 310 173 318 191 2 5 8 8 14 8 5 0 35 19 66 43 31 23 74 54 94 67 21 14 38 28 38 33 0 4 5 7 10 7 9 0 81 50 155 107 93 73 146 115 170 138 l30 27 5 -53 c4 -40 9 -55 22 -57 12 -2 19 5 23 25 13 63 60 198 71 205 10 7 17 74 15 152 0 40 -46 47 -82 13z m8 -125 c-9 -10 -17 -26 -17 -36 0 -35 -67 -116 -97 -116 -17 0 -18 -4 22 74 39 76 82 123 97 108 9 -9 7 -16 -5 -30z"/> <path d="M8017 8223 c-43 -11 -83 -201 -66 -313 9 -65 30 -143 54 -210 7 -19 29 -87 50 -150 36 -112 54 -163 81 -227 8 -17 14 -36 14 -41 0 -6 12 -34 26 -64 37 -77 52 -110 59 -135 3 -13 11 -23 16 -23 5 0 9 -11 9 -24 0 -13 7 -29 15 -36 8 -7 15 -20 15 -30 0 -10 7 -23 15 -30 8 -7 15 -18 15 -25 0 -17 65 -138 111 -209 22 -32 39 -61 39 -65 0 -4 14 -20 30 -36 26 -25 32 -27 40 -15 13 20 12 27 -1 35 -5 4 -15 17 -20 28 -5 12 -18 36 -29 52 -10 17 -30 53 -45 80 -25 48 -34 66 -55 103 -6 9 -12 23 -15 30 -3 6 -7 18 -10 25 -3 6 -9 19 -14 27 -21 33 -82 172 -125 285 -26 66 -51 127 -56 136 -5 9 -12 33 -15 53 -4 20 -11 39 -16 42 -5 3 -9 13 -9 22 0 9 -7 30 -15 46 -8 15 -15 35 -15 43 0 8 -6 29 -13 46 -42 98 -77 272 -77 384 0 73 13 116 46 154 8 9 12 24 8 33 -6 16 -14 18 -47 9z"/> <path d="M7492 8133 c-25 -49 -20 -241 8 -278 4 -5 11 -26 15 -45 4 -19 11 -41 16 -50 4 -8 22 -46 39 -85 17 -38 37 -83 45 -100 7 -16 22 -50 33 -75 64 -142 88 -194 128 -275 56 -114 89 -156 104 -135 13 20 13 26 -3 42 -8 7 -17 26 -21 41 -3 15 -11 27 -16 27 -6 0 -10 7 -10 16 0 9 -6 28 -14 42 -16 33 -48 101 -74 162 -11 25 -30 68 -42 95 -13 28 -38 84 -57 125 -19 41 -38 83 -43 92 -6 10 -10 23 -10 30 0 7 -7 26 -15 42 -8 16 -18 46 -21 68 -4 21 -11 41 -15 44 -5 3 -9 52 -9 108 0 78 -4 107 -14 115 -12 10 -17 9 -24 -6z"/> <path d="M6610 7533 c-23 -9 -30 -24 -30 -70 0 -23 -4 -45 -10 -48 -12 -8 -13 -122 -1 -129 5 -3 10 -32 13 -65 3 -37 10 -65 21 -75 9 -10 17 -32 17 -50 0 -19 7 -39 15 -46 8 -7 15 -21 15 -31 0 -11 7 -19 15 -19 8 0 15 8 15 19 0 10 -7 24 -15 31 -9 7 -15 29 -15 55 0 23 -3 45 -7 49 -5 4 -13 51 -19 104 -11 98 -4 193 18 239 16 33 2 49 -32 36z"/> <path d="M8960 7475 c0 -8 5 -15 10 -15 6 0 10 -8 10 -18 0 -11 9 -29 20 -42 11 -13 20 -29 20 -37 0 -7 5 -13 10 -13 6 0 10 -6 10 -14 0 -8 7 -21 15 -30 8 -8 20 -27 26 -43 10 -26 11 -27 24 -10 12 17 10 44 -4 57 -11 9 -71 135 -71 147 0 14 -31 33 -54 33 -9 0 -16 -7 -16 -15z"/> <path d="M6823 7447 c-31 -36 -55 -87 -65 -142 -13 -65 -13 -68 0 -215 12 -138 23 -180 76 -290 13 -28 56 -41 56 -16 0 8 -4 18 -10 21 -5 3 -10 14 -10 23 0 9 -7 30 -15 46 -9 16 -12 32 -9 35 4 3 9 0 11 -6 6 -16 33 -17 33 -2 0 6 -10 25 -22 42 -42 58 -58 107 -58 174 0 35 5 74 11 86 18 35 51 67 69 67 22 0 40 19 33 36 -8 23 -40 16 -76 -16 -19 -16 -38 -30 -41 -30 -10 0 5 71 22 105 8 17 26 40 39 53 27 25 24 52 -5 52 -10 0 -27 -10 -39 -23z"/> <path d="M7007 7463 c-4 -3 -7 -14 -7 -24 0 -19 10 -23 75 -34 47 -8 126 -44 174 -80 40 -29 56 -31 64 -10 19 48 -268 187 -306 148z"/> <path d="M8622 7427 c-7 -8 -13 -32 -13 -53 -2 -40 17 -153 30 -189 19 -49 86 -175 93 -175 4 0 8 -6 8 -13 0 -7 8 -20 18 -28 9 -9 24 -26 32 -38 18 -27 26 -37 105 -126 33 -37 64 -73 68 -81 4 -8 17 -14 29 -14 17 0 19 4 13 27 -3 15 -12 32 -19 37 -7 6 -37 40 -67 76 -30 35 -62 73 -71 84 -10 11 -30 38 -45 60 -15 23 -30 43 -33 46 -8 8 -28 43 -48 85 -38 78 -55 149 -56 230 -1 65 -4 80 -17 83 -9 1 -21 -3 -27 -11z"/> <path d="M5779 7396 c-14 -7 -37 -16 -52 -20 -33 -8 -161 -131 -152 -146 13 -20 38 -9 98 45 33 30 65 55 70 55 5 0 24 7 42 16 58 27 217 6 257 -34 7 -7 19 -12 27 -12 8 0 22 -6 30 -14 9 -8 29 -18 44 -22 26 -6 28 -4 25 15 -2 15 -20 32 -53 49 -27 15 -55 33 -63 40 -7 6 -19 12 -27 12 -7 0 -26 7 -41 15 -37 19 -169 20 -205 1z"/> <path d="M6213 7223 c-21 -8 -15 -56 10 -83 48 -53 96 -117 117 -155 12 -22 30 -53 40 -70 25 -39 90 -174 90 -186 0 -5 4 -17 10 -27 20 -36 50 -112 50 -126 0 -8 4 -18 10 -21 5 -3 14 -23 20 -43 5 -20 19 -48 29 -62 16 -20 22 -22 35 -11 8 7 20 10 26 6 6 -4 17 -1 25 5 12 10 15 7 21 -16 8 -31 38 -64 58 -64 49 0 59 -39 30 -108 -81 -189 -98 -295 -70 -422 35 -157 38 -232 21 -502 -5 -79 -3 -104 9 -129 9 -18 16 -52 16 -76 0 -50 26 -62 35 -15 4 15 13 39 21 54 8 14 14 40 14 58 0 18 7 59 16 93 29 113 10 475 -32 607 -18 57 -18 78 1 114 8 15 15 35 15 43 0 8 7 31 16 51 8 21 21 51 28 67 83 193 152 294 302 442 115 114 181 161 333 240 97 50 143 65 246 82 34 5 40 10 43 32 4 36 -20 54 -55 41 -16 -6 -66 -20 -113 -31 -77 -19 -204 -58 -255 -80 -196 -85 -321 -167 -442 -290 -71 -73 -133 -168 -133 -207 0 -20 -5 -24 -30 -24 -28 0 -30 3 -30 35 0 19 -4 44 -9 57 -5 13 -14 59 -21 103 -10 68 -49 178 -69 195 -13 11 -51 70 -51 79 0 5 -16 37 -36 71 -41 67 -113 136 -178 168 -23 12 -61 42 -85 67 -41 44 -52 49 -78 38z m407 -705 c0 -16 -3 -19 -11 -11 -6 6 -8 16 -5 22 11 17 16 13 16 -11z m129 -530 c0 -45 -2 -49 -10 -29 -9 22 -4 81 7 81 2 0 4 -24 3 -52z m32 -777 c-13 -21 -19 0 -13 44 l5 40 8 -35 c4 -19 4 -41 0 -49z"/> <path d="M4681 7186 c-16 -19 -1 -28 79 -51 60 -18 72 -26 173 -126 96 -95 107 -111 107 -142 0 -29 3 -34 19 -30 15 4 24 -6 42 -44 13 -26 27 -50 31 -53 3 -3 10 -18 13 -33 4 -15 11 -27 16 -27 5 0 9 -9 9 -21 0 -12 6 -35 14 -52 25 -61 38 -123 51 -257 8 -74 18 -180 24 -235 6 -55 11 -141 11 -192 0 -95 9 -118 37 -90 14 14 14 42 4 250 -7 129 -16 250 -21 268 -6 19 -10 55 -10 80 0 96 -93 355 -162 453 -16 21 -28 47 -28 57 0 16 59 80 167 181 23 23 20 48 -6 48 -36 0 -161 -144 -161 -186 0 -30 -30 -11 -107 66 -44 44 -91 84 -104 90 -13 5 -31 14 -39 19 -77 44 -137 54 -159 27z"/> <path d="M5650 7163 c-14 -2 -29 -9 -34 -14 -6 -5 -23 -9 -38 -9 -15 0 -45 -9 -65 -20 -21 -11 -43 -20 -50 -20 -7 0 -13 -4 -13 -10 0 -5 -6 -10 -13 -10 -19 0 -47 -33 -47 -53 0 -17 25 -24 32 -9 5 12 66 52 81 52 7 0 18 5 24 11 6 6 29 15 50 20 21 4 59 13 85 20 40 10 57 10 108 -4 33 -10 75 -17 93 -17 18 0 38 -5 44 -11 6 -6 28 -9 49 -7 l39 4 -50 23 c-27 13 -68 25 -90 28 -22 3 -45 10 -51 14 -14 11 -120 19 -154 12z"/> <path d="M7085 7150 c-3 -5 -13 -10 -22 -10 -21 0 -63 -41 -63 -62 0 -9 -4 -20 -10 -23 -16 -10 -12 -109 6 -146 22 -44 44 -69 61 -69 17 0 17 31 -2 66 -9 17 -15 56 -15 92 0 85 21 107 95 99 49 -5 75 4 75 25 0 25 -111 51 -125 28z"/> <path d="M3968 7111 c-12 -15 -30 -39 -38 -51 -18 -27 -135 -184 -165 -220 -87 -105 -216 -216 -287 -247 -15 -7 -32 -21 -38 -33 -21 -38 16 -34 80 9 33 23 64 41 70 41 10 0 -5 -50 -18 -60 -12 -9 -52 -96 -52 -114 0 -9 -4 -16 -9 -16 -5 0 -13 -15 -16 -32 -4 -18 -11 -37 -15 -43 -4 -5 -11 -26 -14 -45 -4 -19 -11 -44 -16 -55 -12 -27 -30 -124 -40 -217 -4 -42 -13 -91 -18 -110 -6 -18 -12 -84 -15 -146 -3 -108 -3 -113 16 -110 29 4 45 59 46 154 1 45 6 106 12 135 6 30 17 97 24 149 15 108 31 173 51 212 8 14 14 35 14 46 0 11 8 35 17 54 9 18 22 45 30 60 7 14 13 33 13 42 0 9 4 16 9 16 5 0 12 14 16 30 4 17 10 30 15 30 4 0 11 11 14 24 3 14 27 48 54 75 40 44 55 53 101 61 30 6 60 15 67 21 24 20 3 32 -42 25 -25 -3 -44 -2 -44 4 0 5 16 26 35 47 20 21 56 68 81 106 25 37 52 73 59 80 7 7 16 23 19 35 4 12 12 22 17 22 5 0 9 11 9 25 0 33 -13 32 -42 -4z"/> <path d="M4101 7132 c-8 -6 -11 -17 -6 -31 6 -19 11 -21 43 -14 60 13 219 10 234 -4 6 -7 19 -13 28 -13 18 0 139 -60 165 -81 38 -32 142 -137 165 -168 14 -18 31 -39 38 -46 6 -8 12 -16 12 -18 0 -3 16 -29 35 -58 19 -30 35 -59 35 -65 0 -7 3 -14 8 -16 14 -6 67 -127 105 -238 32 -93 45 -144 62 -240 8 -41 18 -93 24 -115 6 -22 11 -62 11 -90 1 -53 13 -95 22 -79 13 20 18 163 8 219 -6 33 -15 88 -20 122 -5 35 -14 72 -20 82 -5 11 -10 28 -10 38 0 10 -6 30 -14 45 -8 15 -17 40 -21 57 -4 17 -11 33 -16 36 -5 4 -9 17 -9 29 0 13 -7 29 -15 36 -8 7 -15 17 -15 22 0 17 -71 152 -114 217 -109 162 -229 274 -366 339 -74 36 -78 37 -215 40 -77 1 -146 -1 -154 -6z"/> <path d="M5545 7047 c-78 -29 -173 -87 -211 -130 -46 -50 -67 -85 -60 -102 8 -22 52 1 77 41 40 66 144 136 220 149 21 4 41 11 45 16 3 5 59 9 124 9 110 0 145 8 125 28 -4 4 -64 8 -133 9 -110 2 -135 -1 -187 -20z"/> <path d="M1736 6974 c-25 -25 -46 -52 -46 -60 0 -8 -4 -14 -9 -14 -4 0 -19 -22 -32 -50 -13 -27 -27 -50 -31 -50 -5 0 -8 -11 -8 -24 0 -14 -4 -28 -10 -31 -5 -3 -10 -17 -10 -31 0 -13 -4 -24 -9 -24 -5 0 -11 -8 -14 -17 -3 -10 -15 -34 -26 -53 -36 -63 -91 -182 -91 -199 0 -9 -7 -25 -15 -35 -8 -11 -15 -31 -15 -45 0 -14 -7 -35 -15 -45 -8 -11 -15 -38 -15 -61 0 -23 -6 -47 -12 -54 -18 -17 -18 -325 0 -343 6 -6 15 -8 19 -4 5 4 11 71 15 149 6 149 21 251 44 304 8 17 14 40 14 51 0 11 7 33 15 49 8 15 36 75 64 133 27 58 68 126 90 152 45 51 49 63 24 76 -17 10 -15 18 17 67 11 17 23 37 27 45 3 8 30 40 60 70 29 30 53 63 53 73 0 31 -37 18 -84 -29z"/> <path d="M5880 6986 c-54 -39 -61 -72 -15 -69 17 1 58 10 93 20 60 17 64 17 93 0 17 -9 37 -17 44 -17 17 0 127 -120 172 -187 69 -104 73 -44 7 85 -83 161 -138 202 -269 201 -74 0 -83 -3 -125 -33z"/> <path d="M1975 6824 c-54 -21 -129 -56 -135 -63 -3 -4 -17 -14 -32 -24 -28 -17 -37 -50 -18 -62 6 -4 27 7 48 23 33 26 69 45 157 83 18 7 88 14 173 17 101 3 142 8 139 16 -8 25 -272 33 -332 10z"/> <path d="M4197 6814 c-32 -8 -84 -31 -115 -50 -64 -42 -142 -119 -142 -143 0 -9 -7 -25 -15 -35 -17 -23 -20 -84 -5 -106 9 -13 12 -12 25 4 8 11 15 28 15 37 0 31 37 104 68 136 50 49 109 74 191 80 68 5 78 4 136 -26 66 -34 119 -84 151 -141 10 -19 24 -42 30 -50 5 -8 18 -35 28 -60 11 -25 25 -59 32 -77 8 -17 14 -38 14 -47 0 -8 4 -25 9 -38 37 -95 69 -345 77 -606 4 -122 10 -225 15 -227 4 -3 16 3 26 13 19 17 19 25 7 299 -7 155 -15 286 -18 291 -3 5 -10 50 -16 100 -23 208 -101 425 -183 512 -75 79 -128 113 -203 130 -22 5 -47 11 -55 14 -8 2 -40 -3 -72 -10z"/> <path d="M5007 6813 c-4 -3 -7 -26 -7 -50 0 -24 -7 -58 -16 -75 -11 -22 -14 -43 -9 -79 8 -58 22 -64 30 -11 3 20 10 51 15 68 6 17 10 58 10 92 0 57 -6 72 -23 55z"/> <path d="M2140 6760 c-8 -5 -24 -10 -35 -10 -55 0 -188 -97 -251 -182 -24 -33 -44 -66 -44 -74 0 -8 -4 -14 -9 -14 -5 0 -13 -10 -16 -22 -4 -13 -13 -38 -22 -57 -10 -23 -12 -36 -5 -43 15 -15 35 -5 48 23 61 133 81 163 147 224 38 36 77 65 87 65 10 0 23 7 30 15 7 8 22 15 34 15 11 0 42 7 67 17 43 15 50 15 88 0 23 -10 50 -17 60 -17 18 0 116 -90 162 -150 13 -17 34 -43 47 -58 12 -15 35 -45 50 -67 34 -49 69 -91 105 -123 24 -22 27 -33 27 -84 0 -33 -5 -68 -10 -79 -6 -10 -14 -49 -17 -86 -3 -37 -12 -78 -20 -93 -7 -14 -13 -37 -13 -52 0 -15 -4 -30 -10 -33 -5 -3 -10 -14 -10 -23 -1 -9 -9 -35 -20 -57 -11 -22 -19 -43 -20 -47 -1 -18 -83 -178 -105 -204 -5 -6 -19 -24 -30 -40 -71 -99 -171 -209 -178 -197 -2 4 7 26 21 48 47 73 89 159 126 260 21 55 44 112 52 127 8 14 14 33 14 42 0 15 8 35 32 76 35 62 42 83 31 87 -23 8 -27 4 -38 -37 -21 -84 -30 -47 -36 145 -9 262 -22 314 -92 393 -99 108 -188 107 -300 -4 -47 -45 -111 -134 -142 -195 -25 -47 -16 -89 20 -89 2 0 13 21 26 48 32 67 114 177 164 217 62 51 107 49 161 -7 52 -55 74 -91 74 -121 0 -14 7 -41 15 -60 12 -29 15 -83 15 -254 0 -204 -2 -222 -24 -283 -13 -36 -26 -74 -30 -85 -28 -78 -88 -198 -136 -272 -47 -72 -169 -190 -298 -288 -55 -41 -92 -77 -92 -87 0 -35 21 -25 180 86 101 72 319 254 393 331 51 52 128 149 140 175 4 8 16 29 27 45 11 17 23 37 26 45 12 29 37 85 51 112 7 14 13 35 13 46 0 12 4 23 9 26 5 3 12 22 16 42 3 20 10 44 15 53 22 40 54 311 43 371 -8 48 -12 53 -30 38 -18 -14 -12 -21 -130 142 -64 89 -165 200 -227 248 -9 7 -32 16 -52 19 -19 3 -37 10 -40 14 -7 12 -115 11 -134 -1z"/> <path d="M5907 6753 c-20 -19 -4 -45 41 -65 26 -11 72 -32 102 -45 30 -14 62 -28 70 -33 8 -5 51 -27 95 -50 118 -62 177 -110 263 -215 20 -24 55 -235 72 -425 33 -361 35 -600 9 -840 -14 -138 -55 -327 -80 -372 -5 -10 -9 -23 -9 -28 0 -20 -59 -146 -90 -195 -11 -16 -23 -37 -27 -45 -6 -14 -61 -89 -73 -100 -3 -3 -20 -24 -39 -47 -18 -24 -40 -43 -50 -43 -15 0 -16 19 -16 203 0 117 -5 225 -12 257 -6 30 -16 80 -23 110 -6 30 -15 74 -20 97 -11 50 -74 243 -88 269 -6 11 -25 50 -44 88 -18 38 -43 75 -55 83 -13 9 -23 24 -23 34 0 10 -10 30 -23 44 -43 50 -77 1 -43 -63 24 -47 46 -109 90 -257 40 -132 86 -467 86 -620 0 -80 -26 -329 -45 -444 -23 -127 -81 -349 -103 -387 -17 -31 -150 -129 -195 -143 -90 -30 -133 62 -124 265 6 133 22 286 36 354 18 82 32 154 40 200 4 25 12 54 18 65 15 29 39 117 58 219 40 212 25 773 -26 996 -6 25 -15 72 -19 105 -5 33 -17 92 -26 130 -9 39 -19 86 -21 105 -6 42 -19 60 -43 60 -32 0 -45 -27 -31 -63 40 -101 45 -147 45 -432 0 -270 -6 -350 -44 -648 -5 -43 -15 -87 -20 -97 -6 -10 -10 -33 -10 -50 0 -17 -7 -47 -15 -67 -8 -19 -15 -49 -15 -65 0 -39 -35 -105 -61 -113 -32 -10 -86 3 -91 23 -3 9 -1 51 3 92 11 102 10 336 -2 440 -10 95 -31 210 -40 225 -4 6 -10 29 -14 52 -4 24 -11 45 -16 49 -5 3 -9 14 -9 26 0 11 -6 34 -14 51 -7 18 -23 57 -35 87 -13 30 -42 96 -65 145 -24 50 -48 102 -55 118 -6 15 -17 27 -25 27 -8 0 -18 10 -22 22 -9 30 -51 89 -163 231 -34 42 -65 77 -70 77 -13 0 -41 -29 -41 -42 0 -5 18 -31 41 -56 67 -76 239 -382 239 -425 0 -7 4 -17 8 -22 5 -6 23 -57 41 -115 18 -58 37 -121 44 -140 6 -19 14 -57 18 -85 3 -27 11 -75 17 -105 16 -79 36 -393 28 -431 -3 -18 -1 -47 6 -65 15 -42 9 -48 -28 -29 -19 9 -35 28 -43 52 -8 21 -34 81 -59 133 -24 52 -48 104 -53 115 -4 11 -14 36 -23 55 -27 63 -74 224 -87 295 -15 86 -28 103 -65 86 -29 -13 -29 -7 4 -132 11 -41 23 -97 27 -125 18 -143 115 -416 210 -591 21 -37 44 -75 51 -84 8 -8 14 -19 14 -23 0 -11 91 -129 107 -139 17 -10 17 -37 -1 -62 -7 -11 -17 -40 -21 -65 -4 -24 -11 -51 -15 -60 -8 -16 -26 -93 -39 -177 -5 -28 -13 -58 -17 -65 -5 -7 -11 -35 -15 -63 -3 -27 -11 -70 -17 -95 -14 -60 -31 -151 -42 -225 -4 -33 -17 -121 -28 -195 -11 -74 -25 -180 -32 -235 -6 -55 -15 -134 -21 -175 -11 -82 -22 -219 -39 -460 -5 -85 -14 -211 -20 -280 -14 -180 -23 -1042 -12 -1059 8 -11 51 -14 223 -12 314 2 625 26 809 62 30 6 78 15 105 19 48 8 71 14 195 47 70 19 140 42 162 54 10 5 26 9 36 9 9 0 26 6 37 13 11 7 47 21 80 32 90 28 104 46 67 83 -50 50 -191 321 -266 512 -21 52 -44 110 -52 128 -8 18 -14 40 -14 50 0 9 -7 26 -15 36 -8 11 -15 32 -15 47 0 15 -4 30 -9 34 -5 3 -12 20 -16 38 -4 17 -14 55 -22 82 -36 120 -33 106 -68 305 -9 47 -20 141 -26 210 -12 141 -6 518 10 595 15 71 31 171 39 235 6 44 17 69 52 119 25 34 72 100 105 146 33 46 67 93 75 105 25 37 83 115 90 120 3 3 16 21 28 40 11 19 32 47 46 62 14 15 38 44 53 66 69 97 314 396 437 532 106 117 389 394 466 455 96 77 311 225 327 225 7 0 13 3 13 8 0 4 39 22 88 41 48 18 105 41 127 51 22 10 48 21 58 24 10 3 17 15 17 30 0 31 -21 38 -85 27 -72 -12 -223 -50 -290 -73 -16 -5 -41 -12 -55 -15 -14 -3 -39 -11 -57 -19 -17 -8 -36 -14 -42 -14 -6 0 -19 -4 -29 -10 -9 -5 -35 -16 -57 -25 -98 -40 -249 -119 -304 -160 -34 -25 -63 -45 -66 -45 -11 0 -4 60 9 87 16 31 34 100 48 183 11 65 4 235 -18 410 -19 152 -25 170 -60 170 l-26 0 7 -87 c12 -172 -36 -517 -78 -559 -4 -4 -7 -14 -7 -22 0 -21 -68 -161 -96 -199 -13 -17 -24 -35 -24 -38 0 -3 -11 -21 -24 -38 -14 -18 -29 -43 -35 -57 -6 -14 -15 -32 -20 -40 -5 -8 -12 -23 -15 -33 -3 -9 -17 -22 -31 -27 -28 -11 -33 -28 -10 -36 15 -6 85 31 85 45 0 5 18 20 40 35 22 14 65 60 95 100 30 41 67 83 82 94 l28 20 28 -24 c37 -32 94 -30 205 5 18 5 32 6 30 1 -2 -4 -75 -82 -163 -172 -88 -90 -189 -197 -225 -238 -35 -41 -87 -100 -115 -130 -27 -31 -63 -73 -80 -94 -16 -22 -44 -55 -60 -75 -17 -20 -46 -56 -65 -81 -18 -25 -39 -49 -45 -55 -7 -5 -49 -59 -95 -120 -46 -60 -97 -127 -114 -147 -53 -63 -103 -132 -181 -249 -41 -63 -89 -134 -107 -158 -63 -85 -106 -323 -116 -641 -4 -124 -6 -251 -5 -284 4 -104 58 -454 83 -541 37 -121 156 -468 175 -505 12 -25 35 -76 50 -115 16 -38 41 -91 57 -118 15 -26 28 -53 28 -60 0 -7 11 -32 25 -56 28 -48 32 -102 11 -124 -8 -8 -33 -17 -56 -21 -23 -3 -60 -15 -83 -25 -23 -11 -64 -22 -92 -26 -27 -4 -62 -13 -77 -21 -52 -27 -287 -70 -428 -79 -36 -2 -96 -9 -135 -14 -38 -6 -170 -10 -292 -11 l-222 0 -20 26 c-20 26 -21 39 -21 293 0 474 24 925 67 1276 8 66 14 149 13 185 0 36 4 88 10 115 10 46 27 169 34 240 2 17 10 64 19 105 9 41 19 91 21 110 3 19 19 105 37 190 17 85 35 173 39 195 5 22 14 58 20 80 28 92 58 268 50 289 -7 18 -9 15 -9 -16 -1 -40 -15 -58 -25 -32 -11 29 -6 65 9 70 17 7 14 24 -18 92 -23 50 -18 59 20 43 39 -16 147 -7 151 12 4 19 39 28 51 13 5 -6 5 -30 1 -56 -5 -25 -14 -76 -20 -115 -6 -38 -16 -83 -20 -100 -33 -110 -47 -500 -22 -585 23 -74 133 -170 196 -170 34 0 173 73 214 113 40 38 95 119 117 170 21 51 46 160 52 227 3 30 9 60 14 67 10 11 24 76 36 163 5 43 30 80 53 80 5 0 10 -7 10 -15 0 -19 76 -21 83 -2 4 9 8 8 16 -3 8 -12 13 -11 33 5 43 38 81 77 102 105 75 103 88 124 90 146 1 18 5 22 19 18 13 -4 17 0 17 21 0 14 11 48 25 74 37 74 80 239 117 446 37 216 28 781 -17 1000 -8 39 -17 97 -20 130 -4 33 -16 93 -26 133 -11 40 -19 85 -17 100 2 20 -2 28 -16 30 -11 3 -29 16 -40 31 -43 54 -112 124 -151 151 -69 47 -245 110 -309 110 -24 0 -53 8 -71 20 -29 20 -75 26 -88 13z m680 -570 c-2 -16 -4 -5 -4 22 0 28 2 40 4 28 2 -13 2 -35 0 -50z m-457 -1890 c0 -12 -4 -25 -10 -28 -6 -4 -10 11 -10 37 0 31 3 39 10 28 5 -8 10 -25 10 -37z m-613 -245 c-2 -13 -4 -5 -4 17 -1 22 1 32 4 23 2 -10 2 -28 0 -40z m-28 -290 c0 -84 -4 -126 -9 -113 -14 34 -9 245 6 245 2 0 4 -60 3 -132z m660 -80 c-1 -31 -1 -31 -8 -8 -5 14 -6 28 -4 33 9 15 13 6 12 -25z m-32 -160 c-2 -13 -4 -5 -4 17 -1 22 1 32 4 23 2 -10 2 -28 0 -40z m-30 -210 c-2 -18 -4 -6 -4 27 0 33 2 48 4 33 2 -15 2 -42 0 -60z m-987 -438 c0 -49 -13 -73 -24 -44 -14 36 -3 109 15 98 5 -3 9 -27 9 -54z m989 -122 c-1 -56 -2 -59 -9 -28 -8 31 -3 90 6 90 2 0 4 -28 3 -62z m-1032 -140 c-2 -13 -4 -3 -4 22 0 25 2 35 4 23 2 -13 2 -33 0 -45z m-30 -410 c-2 -29 -3 -8 -3 47 0 55 1 79 3 53 2 -26 2 -71 0 -100z m-30 -875 c-1 -76 -3 -14 -3 137 0 151 2 213 3 138 2 -76 2 -200 0 -275z m698 -162 c3 -5 1 -13 -5 -16 -15 -9 -43 3 -35 15 8 13 32 13 40 1z"/> <path d="M5505 6718 c-59 -32 -115 -116 -115 -173 0 -24 36 -58 52 -49 4 3 8 22 8 42 0 20 6 48 13 62 15 29 72 70 99 70 32 0 120 -48 168 -91 25 -22 57 -49 73 -60 24 -18 28 -19 33 -5 12 31 -111 164 -181 197 -44 21 -119 24 -150 7z"/> <path d="M1961 6544 c-12 -14 -26 -35 -32 -47 -5 -12 -20 -40 -34 -62 -13 -22 -24 -47 -25 -56 0 -9 -7 -22 -15 -29 -8 -7 -15 -21 -15 -32 0 -11 -7 -26 -15 -34 -8 -9 -15 -25 -15 -37 0 -12 -7 -31 -15 -41 -8 -11 -15 -29 -15 -40 0 -12 -7 -30 -15 -40 -8 -11 -15 -29 -15 -40 0 -12 -7 -30 -15 -40 -8 -11 -15 -27 -15 -37 0 -9 -7 -30 -15 -45 -8 -16 -15 -39 -15 -51 0 -12 -5 -23 -11 -25 -16 -5 -17 -80 -2 -85 7 -3 18 8 24 24 6 15 17 42 25 58 7 17 20 46 28 67 9 20 16 42 16 50 0 8 4 18 8 24 4 5 18 36 31 69 12 33 30 78 38 100 8 22 22 58 30 80 8 22 21 52 29 67 8 14 14 33 14 42 0 9 4 16 10 16 5 0 13 12 16 28 4 15 10 29 14 32 18 14 51 82 46 95 -8 21 -19 19 -45 -11z"/> <path d="M4213 6562 c-36 -11 -73 -50 -96 -100 -20 -42 -22 -62 -20 -195 1 -126 4 -151 19 -168 9 -10 23 -19 29 -19 18 0 25 38 14 69 -16 39 -1 227 21 279 18 40 31 48 69 42 25 -3 50 -43 71 -115 12 -38 24 -77 27 -85 4 -8 20 -55 37 -105 28 -81 34 -90 56 -90 l25 0 -3 95 c-8 260 -118 434 -249 392z"/> <path d="M9597 6533 c-14 -14 -6 -29 30 -53 48 -32 62 -46 98 -100 38 -59 65 -111 65 -128 0 -8 6 -26 14 -40 19 -38 37 -90 48 -143 13 -59 51 -109 69 -91 13 12 7 42 -33 157 -5 17 -13 44 -17 60 -13 48 -66 159 -105 217 -19 29 -57 70 -85 91 -49 36 -71 44 -84 30z"/> <path d="M7370 6465 c0 -15 6 -25 38 -60 6 -7 12 -17 12 -22 0 -12 97 -123 128 -147 15 -11 29 -23 32 -27 7 -9 96 -49 109 -49 6 0 11 -4 11 -10 0 -12 47 -13 54 -2 9 15 -22 49 -50 56 -41 11 -150 83 -177 119 -14 18 -34 43 -46 56 -11 13 -28 41 -38 62 -14 32 -22 39 -45 39 -19 0 -28 -5 -28 -15z"/> <path d="M5757 6453 c-68 -36 -161 -236 -137 -297 15 -40 44 -31 48 14 2 19 7 39 12 45 4 5 11 24 15 42 14 69 69 153 100 153 7 0 21 -7 30 -17 21 -20 62 -113 71 -158 4 -25 11 -35 25 -35 16 0 19 8 19 58 l0 57 49 -51 c27 -28 59 -68 71 -90 11 -21 25 -47 31 -56 5 -10 14 -26 19 -35 6 -10 13 -25 16 -33 3 -8 12 -28 20 -43 7 -16 14 -34 14 -40 0 -6 9 -30 21 -54 14 -28 27 -43 40 -43 25 0 24 25 -2 86 -11 27 -24 58 -28 69 -34 87 -109 222 -139 251 -37 36 -104 74 -129 74 -7 0 -13 5 -13 11 0 27 -35 81 -61 94 -34 18 -55 18 -92 -2z"/> <path d="M2215 6328 c-19 -23 -38 -54 -42 -68 -3 -14 -12 -34 -19 -45 -8 -11 -14 -30 -14 -43 0 -12 -7 -33 -16 -46 -10 -16 -14 -42 -12 -78 3 -45 6 -53 23 -53 17 0 21 9 26 50 6 48 17 83 46 152 7 17 13 37 13 45 1 7 10 24 21 37 17 21 22 22 33 10 10 -10 11 -35 6 -99 -8 -94 0 -171 24 -240 25 -72 19 -129 -27 -265 -19 -58 -76 -185 -87 -195 -12 -12 -50 -70 -50 -76 0 -4 -51 -58 -112 -119 -73 -72 -148 -134 -210 -175 -95 -61 -115 -84 -83 -96 12 -5 125 60 180 103 110 86 151 125 210 199 22 27 42 51 46 54 3 3 16 23 29 45 13 22 27 42 31 45 9 7 79 155 79 169 0 6 4 19 9 29 6 9 17 43 27 74 14 49 16 91 11 290 -5 233 -11 282 -45 321 -25 29 -57 21 -97 -25z"/> <path d="M8966 6302 c-49 -28 -91 -64 -131 -113 -25 -31 -65 -111 -65 -132 0 -9 -4 -18 -9 -21 -5 -3 -12 -27 -16 -53 -4 -25 -13 -56 -21 -69 -17 -25 -9 -74 12 -74 16 0 37 47 48 104 8 43 8 42 57 140 46 92 109 147 177 154 48 4 50 3 83 -39 33 -41 42 -58 83 -149 30 -69 94 -236 100 -267 10 -43 43 -78 62 -62 17 14 17 20 2 56 -11 27 -18 54 -52 188 -33 136 -53 184 -104 258 -62 89 -153 120 -226 79z"/> <path d="M9320 6256 c0 -20 6 -27 28 -32 117 -30 249 -157 327 -315 20 -41 41 -82 46 -91 5 -10 9 -23 9 -29 0 -6 6 -25 14 -42 7 -18 17 -45 22 -62 10 -31 38 -45 56 -27 6 6 6 16 0 28 -6 11 -15 37 -21 59 -5 22 -16 63 -24 91 -56 197 -260 412 -415 439 -40 6 -42 6 -42 -19z"/> <path d="M6985 6229 c-9 -14 20 -74 63 -131 59 -79 71 -57 22 39 -16 31 -30 65 -30 74 0 25 -43 39 -55 18z"/> <path d="M8244 6232 c-31 -20 -55 -129 -56 -252 -1 -86 19 -233 36 -265 10 -18 16 -56 16 -92 0 -49 3 -63 15 -63 12 0 15 16 15 81 0 44 -4 89 -10 99 -5 10 -13 104 -17 209 -5 167 -4 193 10 215 26 40 19 87 -9 68z"/> <path d="M8597 6229 c-28 -16 -60 -71 -69 -118 -24 -125 -27 -180 -18 -266 15 -135 29 -218 40 -229 6 -6 10 -22 10 -37 0 -15 11 -55 24 -90 18 -48 29 -65 45 -67 25 -4 26 5 5 78 -50 178 -57 231 -58 434 l-1 198 33 27 c47 40 38 97 -11 70z"/> <path d="M3938 6188 c-90 -86 -139 -223 -193 -538 -9 -52 -21 -109 -26 -126 -5 -17 -9 -49 -9 -72 0 -35 3 -42 19 -42 28 0 35 15 48 110 12 87 28 172 43 225 25 91 52 182 60 200 5 11 11 29 13 40 11 45 46 126 66 154 12 17 35 32 52 36 24 5 29 11 27 28 -6 40 -50 34 -100 -15z"/> <path d="M5840 6156 c0 -8 16 -29 36 -48 43 -40 99 -123 108 -160 3 -16 11 -28 16 -28 6 0 10 -10 10 -22 0 -13 7 -36 15 -52 8 -15 15 -38 15 -50 0 -12 7 -31 15 -42 8 -10 15 -33 15 -51 0 -44 9 -63 29 -63 15 0 17 8 13 58 -3 31 -9 59 -13 60 -5 2 -9 16 -9 30 0 15 -7 40 -15 56 -8 15 -15 37 -15 47 0 44 -94 195 -159 257 -27 25 -61 29 -61 8z"/> <path d="M1913 6093 c-39 -50 -89 -133 -98 -164 -4 -13 -14 -33 -21 -44 -8 -11 -14 -27 -14 -36 0 -9 -7 -30 -15 -45 -8 -16 -15 -40 -15 -54 0 -14 -7 -34 -15 -44 -8 -11 -15 -36 -15 -56 0 -20 -5 -41 -11 -47 -21 -21 0 -34 27 -17 16 11 24 26 24 45 0 16 9 46 20 66 11 21 20 48 20 60 0 12 4 24 9 27 5 3 12 21 15 39 6 34 86 198 109 223 31 35 37 45 37 64 0 31 -25 24 -57 -17z"/> <path d="M7391 6111 c-12 -8 -12 -13 3 -35 9 -14 20 -26 25 -26 4 0 19 -9 32 -20 52 -43 89 -67 124 -80 20 -8 23 -7 18 8 -6 17 -61 72 -72 72 -3 0 -28 20 -56 45 -55 49 -54 48 -74 36z"/> <path d="M8990 6111 c-45 -18 -100 -90 -100 -131 0 -9 -4 -20 -10 -26 -5 -5 -12 -32 -16 -59 -3 -28 -10 -60 -16 -71 -16 -33 -6 -59 22 -59 22 0 26 6 36 65 22 129 54 220 78 220 23 0 33 -23 40 -88 3 -35 10 -71 16 -82 5 -10 10 -32 10 -48 0 -16 3 -32 8 -36 4 -4 12 -26 17 -48 12 -46 37 -70 56 -51 9 9 9 23 0 56 -6 25 -13 85 -17 133 -10 147 -66 249 -124 225z"/> <path d="M2790 6070 c0 -6 11 -36 24 -68 56 -134 42 -341 -36 -509 -11 -24 -24 -45 -29 -49 -5 -3 -9 -12 -9 -20 0 -8 -5 -20 -10 -27 -20 -23 -110 -162 -110 -170 0 -17 30 -17 47 0 28 29 63 81 63 93 0 5 3 10 8 10 7 0 22 24 74 118 62 114 80 194 81 352 0 113 -10 170 -43 238 -14 28 -27 42 -40 42 -11 0 -20 -5 -20 -10z"/> <path d="M7657 6074 c-15 -15 -5 -37 36 -79 25 -27 51 -45 65 -45 31 0 27 21 -10 56 -18 16 -38 39 -44 49 -12 21 -35 30 -47 19z"/> <path d="M1928 5636 c-64 -63 -147 -137 -185 -165 -37 -28 -73 -55 -79 -60 -6 -5 -20 -12 -32 -15 -12 -4 -22 -11 -22 -16 0 -4 -11 -11 -25 -14 -14 -4 -25 -11 -25 -16 0 -6 -9 -10 -19 -10 -11 0 -22 -4 -25 -9 -4 -5 -26 -19 -51 -31 -30 -15 -45 -28 -45 -41 0 -28 20 -24 112 25 134 70 215 119 233 140 6 6 33 29 60 50 28 22 94 83 149 136 82 81 97 100 92 118 -4 12 -10 22 -14 22 -4 0 -60 -52 -124 -114z"/> <path d="M9047 5653 c-12 -12 -7 -64 9 -101 41 -90 96 -201 123 -247 16 -27 39 -69 51 -93 39 -77 117 -186 161 -228 56 -52 148 -107 219 -130 30 -9 70 -24 88 -31 44 -19 106 -14 110 9 2 12 -5 19 -25 24 -15 3 -42 12 -60 20 -17 8 -36 14 -41 14 -6 0 -46 18 -89 40 -133 67 -223 162 -340 360 -59 98 -143 261 -143 275 0 5 -7 29 -16 52 -16 40 -31 52 -47 36z"/> <path d="M8782 5548 c-21 -21 -13 -57 34 -151 8 -16 14 -35 14 -42 0 -8 6 -20 13 -27 6 -7 19 -29 29 -48 87 -185 123 -257 135 -268 7 -7 13 -20 13 -28 0 -19 29 -18 37 2 3 9 1 24 -5 33 -7 9 -15 23 -18 31 -13 33 -45 102 -112 240 -39 80 -74 157 -78 173 -3 15 -10 30 -15 33 -5 3 -9 13 -9 23 0 26 -23 44 -38 29z"/> <path d="M4083 5311 c-193 -155 -316 -423 -317 -693 0 -60 -3 -108 -6 -108 -16 1 -40 30 -40 49 0 27 -35 129 -72 211 -97 210 -254 350 -392 350 -60 0 -116 -25 -116 -51 0 -14 13 -16 93 -15 89 1 93 0 142 -33 28 -19 63 -48 78 -65 76 -81 178 -250 192 -318 4 -15 11 -30 16 -33 5 -4 9 -18 9 -32 0 -14 6 -39 14 -56 20 -43 44 -165 51 -261 4 -48 12 -84 21 -93 9 -9 14 -35 14 -75 0 -57 1 -60 30 -71 17 -6 32 -19 35 -28 3 -9 10 -93 14 -185 9 -168 33 -288 56 -280 12 4 11 64 -3 126 -14 65 -10 555 5 605 7 22 20 74 29 115 23 106 69 259 95 322 37 87 106 193 154 237 45 41 54 44 111 41 42 -2 49 12 20 39 -43 41 -100 29 -184 -37 -72 -57 -155 -206 -201 -362 -12 -41 -26 -85 -32 -98 -5 -13 -9 -33 -9 -45 0 -13 -7 -50 -16 -82 -8 -33 -18 -123 -22 -200 -7 -131 -8 -140 -27 -140 -18 0 -20 7 -22 65 -1 36 -6 88 -12 115 -18 88 -22 255 -7 284 8 14 19 58 24 96 27 182 47 247 135 423 74 147 134 219 232 277 23 14 9 45 -20 45 -13 0 -45 -17 -72 -39z"/> <path d="M4360 5183 c-20 -8 -50 -34 -50 -44 0 -5 9 -13 21 -19 16 -9 26 -8 44 4 90 59 288 -49 397 -217 77 -117 108 -193 144 -352 34 -152 21 -678 -21 -840 -7 -27 -18 -72 -23 -100 -5 -27 -18 -75 -27 -105 -9 -30 -21 -73 -27 -95 -5 -22 -14 -50 -20 -62 -6 -12 -8 -30 -4 -39 6 -16 10 -15 30 11 13 16 31 56 41 90 9 33 25 85 35 115 9 30 25 96 34 145 10 50 22 106 27 125 11 38 28 295 30 430 1 108 -18 292 -35 350 -8 25 -22 72 -31 105 -26 88 -101 242 -151 306 -51 67 -120 127 -189 164 -40 22 -66 28 -130 31 -44 2 -87 1 -95 -3z"/> <path d="M8220 5090 c-58 -9 -99 -24 -185 -66 -222 -108 -412 -247 -585 -429 -78 -82 -150 -169 -150 -182 0 -7 -4 -13 -10 -13 -5 0 -13 -12 -16 -27 -4 -16 -13 -36 -21 -45 -18 -20 -13 -62 7 -66 11 -2 29 22 55 74 32 60 68 104 175 214 74 77 175 168 225 204 50 36 95 70 102 76 7 5 14 10 17 10 3 0 26 14 51 31 58 39 184 101 255 125 84 28 258 27 323 -3 94 -44 195 -139 239 -228 24 -47 38 -151 38 -283 0 -128 4 -152 26 -152 15 0 18 10 35 137 16 128 -2 303 -37 344 -8 8 -14 21 -14 28 0 6 -37 49 -82 95 -108 109 -192 151 -318 159 -47 3 -105 2 -130 -3z"/> <path d="M3073 4923 c-23 -12 -33 -24 -33 -39 0 -32 15 -38 45 -18 92 60 268 -87 381 -318 19 -40 39 -80 44 -89 5 -9 12 -33 15 -53 4 -20 11 -39 16 -41 4 -3 11 -27 15 -53 3 -26 9 -51 13 -57 8 -14 30 -142 41 -250 5 -49 14 -100 20 -113 5 -13 10 -47 10 -76 0 -29 5 -78 11 -107 6 -30 10 -74 10 -99 -1 -60 7 -80 30 -80 17 0 19 8 19 86 0 47 -5 94 -10 104 -6 11 -15 72 -20 137 -16 192 -50 417 -69 453 -5 9 -12 35 -16 58 -4 23 -11 44 -16 48 -5 3 -9 13 -9 22 0 14 -82 186 -113 237 -29 48 -83 113 -128 155 -42 39 -70 57 -161 101 -26 13 -59 10 -95 -8z"/> <path d="M8175 4774 c-76 -16 -75 -15 -185 -69 -139 -67 -217 -119 -352 -237 -58 -51 -192 -215 -224 -273 -68 -126 -126 -264 -141 -335 -3 -14 -9 -29 -13 -35 -5 -5 -11 -27 -15 -48 -4 -20 -11 -40 -16 -43 -5 -3 -9 -14 -9 -26 0 -11 -6 -34 -13 -51 -28 -64 -50 -146 -44 -161 8 -21 34 -20 45 2 5 9 13 34 16 56 4 21 11 46 16 55 22 39 51 114 85 221 20 63 41 126 47 140 34 82 73 165 91 195 46 75 158 212 205 252 31 27 65 56 76 65 83 75 290 187 391 213 93 24 139 20 177 -14 82 -72 108 -187 108 -477 0 -173 2 -204 15 -204 27 0 42 55 55 207 26 310 -33 499 -178 563 -51 23 -45 23 -137 4z"/> <path d="M4475 4760 c-66 -12 -107 -35 -166 -94 -101 -100 -149 -238 -149 -425 0 -54 3 -100 6 -104 16 -15 35 7 29 34 -4 15 -1 63 6 106 6 43 14 98 18 123 5 37 10 46 29 48 19 3 22 -1 22 -33 0 -61 -31 -279 -41 -289 -5 -6 -9 -18 -9 -28 0 -20 -36 -133 -51 -160 -5 -10 -9 -23 -9 -29 0 -6 -16 -45 -35 -86 -19 -41 -35 -77 -35 -79 0 -2 -38 -67 -85 -144 -47 -77 -83 -145 -80 -150 11 -17 34 2 79 63 25 34 49 67 54 72 13 17 102 165 102 172 0 3 13 33 29 67 60 128 81 195 106 341 19 114 20 268 2 287 -32 32 -37 53 -18 84 33 54 94 104 145 119 67 20 98 19 139 -5 104 -62 151 -242 150 -585 0 -149 -14 -335 -29 -387 -4 -13 0 -18 15 -18 15 0 23 10 31 43 6 23 14 58 20 77 18 70 40 217 49 335 10 129 -5 346 -30 415 -37 106 -73 158 -137 199 -53 33 -99 43 -157 31z"/> <path d="M2832 4654 c-50 -56 -122 -186 -122 -221 0 -10 -7 -27 -15 -37 -8 -11 -15 -34 -15 -51 0 -17 -5 -36 -10 -41 -38 -38 -48 -595 -14 -761 5 -28 30 -30 39 -4 3 10 1 90 -5 177 -12 163 1 499 20 534 5 9 12 40 16 68 4 29 11 55 15 58 5 3 9 15 9 27 0 37 73 170 118 215 29 29 42 51 40 65 -5 36 -24 29 -76 -29z"/> <path d="M2470 4613 c-9 -2 -26 -25 -39 -51 -13 -26 -28 -55 -33 -66 -11 -22 -30 -144 -31 -206 -1 -61 21 -202 33 -214 6 -6 10 -24 10 -41 0 -17 7 -40 15 -51 8 -10 15 -30 15 -44 0 -14 7 -38 15 -54 8 -16 18 -46 21 -67 4 -21 13 -44 20 -50 8 -6 14 -22 14 -35 0 -13 4 -24 10 -24 5 0 12 -11 16 -25 7 -27 29 -33 38 -10 3 8 -3 36 -13 62 -18 45 -51 150 -85 268 -30 107 -41 185 -41 300 1 130 12 184 50 245 14 22 25 44 25 49 0 11 -20 18 -40 14z"/> <path d="M2951 4523 c-34 -7 -70 -31 -113 -78 -41 -43 -48 -72 -21 -82 11 -4 22 1 32 17 40 61 60 74 120 78 46 3 67 0 102 -18 57 -30 154 -128 206 -210 23 -36 46 -70 50 -75 13 -16 78 -155 112 -239 17 -40 66 -235 81 -320 10 -56 45 -136 59 -136 19 0 22 42 8 93 -9 29 -20 77 -26 107 -19 106 -31 154 -41 164 -6 6 -10 21 -10 36 0 14 -7 38 -15 54 -8 15 -15 36 -15 46 0 10 -7 23 -15 30 -8 7 -15 20 -15 30 0 25 -94 212 -140 279 -45 66 -139 159 -195 194 -41 25 -119 39 -164 30z"/> <path d="M7945 4398 c-107 -107 -225 -244 -225 -261 0 -4 -12 -23 -26 -44 -30 -44 -94 -178 -94 -196 0 -7 -4 -17 -8 -22 -7 -9 -19 -46 -58 -175 -34 -114 -45 -215 -42 -370 3 -142 5 -155 22 -158 30 -6 36 16 36 145 0 188 70 499 148 663 19 40 73 133 82 140 3 3 31 37 63 77 31 39 95 111 142 160 109 113 114 109 86 -64 -12 -71 -21 -163 -21 -204 0 -41 -5 -105 -11 -144 -6 -38 -14 -137 -19 -220 -11 -188 -28 -367 -41 -424 -8 -36 -7 -47 5 -59 28 -28 44 -7 51 65 3 37 13 114 21 171 8 56 14 135 14 175 0 40 4 88 10 107 5 19 14 96 20 170 5 74 17 191 26 260 27 216 29 288 8 311 -35 39 -59 26 -189 -103z"/> <path d="M4459 4403 c-46 -50 -60 -83 -89 -200 -13 -52 -4 -95 19 -91 9 2 17 14 19 28 5 38 52 161 75 193 18 26 21 27 36 13 13 -13 17 -52 22 -209 7 -223 5 -245 -26 -312 -13 -27 -29 -61 -35 -75 -10 -25 -30 -60 -40 -70 -3 -3 -12 -17 -20 -32 -26 -47 -123 -203 -130 -208 -17 -15 -41 -64 -36 -76 13 -34 42 -3 151 164 19 30 35 56 35 59 0 2 11 19 24 36 14 18 29 43 35 57 6 14 15 32 20 40 5 8 17 32 26 53 10 23 23 37 34 37 15 0 19 12 24 83 10 122 8 344 -3 411 -19 116 -84 162 -141 99z"/> <path d="M7000 4298 c-48 -77 -68 -145 -99 -353 -15 -100 -14 -344 2 -375 23 -46 42 -31 44 35 2 33 10 130 19 215 25 246 56 381 99 431 34 42 30 63 -15 67 -27 2 -38 -2 -50 -20z"/> <path d="M3068 4200 c-44 -34 -53 -93 -34 -215 9 -58 22 -116 29 -128 22 -39 50 -67 69 -67 22 0 24 32 3 50 -8 7 -15 23 -15 35 0 12 -7 42 -15 65 -8 24 -15 77 -15 121 0 72 2 79 20 79 25 0 80 -73 124 -164 19 -40 44 -80 54 -90 19 -17 21 -17 30 0 19 33 -33 172 -95 254 -60 79 -108 97 -155 60z"/> <path d="M7132 4134 c-17 -31 -35 -68 -38 -82 -4 -15 -11 -32 -16 -39 -10 -13 -25 -87 -39 -196 -7 -51 -7 -113 0 -180 5 -56 15 -154 20 -217 13 -136 25 -186 48 -194 29 -12 35 9 23 85 -6 41 -15 117 -20 169 -5 52 -13 133 -19 180 -17 131 9 293 68 420 9 19 22 39 29 43 6 4 12 15 12 22 0 8 5 15 10 15 6 0 10 7 10 15 0 10 -10 15 -27 15 -23 0 -34 -10 -61 -56z"/> <path d="M8685 4003 c-1 -136 -4 -169 -24 -233 -12 -41 -27 -91 -33 -110 -5 -19 -14 -40 -19 -46 -14 -17 -16 -86 -2 -91 16 -6 53 37 53 61 1 12 9 39 20 61 11 22 19 51 20 66 0 14 5 30 11 36 25 25 50 307 30 347 -5 12 -11 30 -13 41 -2 11 -12 21 -23 23 -19 3 -20 -3 -20 -155z"/> <path d="M7898 4048 c-7 -13 -18 -32 -25 -43 -7 -11 -15 -27 -19 -35 -7 -17 -34 -72 -104 -210 -105 -209 -135 -308 -146 -496 -3 -60 -10 -124 -14 -141 -7 -26 -4 -38 10 -55 31 -39 44 -11 51 110 13 210 37 320 101 462 47 105 52 113 66 118 15 5 16 -44 2 -119 -11 -62 -40 -442 -40 -531 0 -33 5 -68 11 -79 20 -39 35 -3 47 113 17 165 31 309 42 428 12 124 33 253 61 369 11 46 19 93 17 105 -4 30 -43 33 -60 4z"/> <path d="M8312 3973 c3 -15 13 -57 23 -93 17 -65 17 -173 -1 -303 -7 -47 -6 -49 17 -45 37 5 48 54 48 215 1 140 -2 158 -39 233 -4 8 -17 17 -30 18 -20 3 -22 0 -18 -25z"/> <path d="M4840 3858 c0 -17 -5 -48 -11 -67 -19 -62 -100 -221 -171 -341 -38 -63 -75 -124 -81 -135 -7 -11 -15 -22 -19 -25 -8 -6 -28 -57 -28 -70 0 -21 41 6 67 43 15 23 32 47 36 52 58 74 187 305 187 335 0 7 7 24 15 38 19 36 47 166 39 186 -11 29 -34 18 -34 -16z"/> <path d="M2899 3854 c-14 -18 -5 -182 11 -198 5 -5 10 -26 10 -46 0 -20 7 -45 15 -56 8 -10 15 -26 15 -34 0 -21 125 -275 161 -328 16 -23 29 -46 29 -50 1 -4 11 -20 24 -36 40 -48 66 -4 27 45 -10 13 -40 67 -67 119 -27 52 -51 97 -54 100 -3 3 -15 28 -28 55 -13 28 -27 58 -33 67 -5 10 -9 22 -9 27 0 5 -5 22 -12 38 -22 53 -41 158 -41 230 0 60 -3 72 -18 76 -10 3 -24 -1 -30 -9z"/> </g> </svg> 