<?xml version="1.0" standalone="no"?>
<!DOCTYPE svg PUBLIC "-//W3C//DTD SVG 20010904//EN"
 "http://www.w3.org/TR/2001/REC-SVG-20010904/DTD/svg10.dtd">
<svg version="1.0" xmlns="http://www.w3.org/2000/svg"
 width="450.000000pt" height="636.000000pt" viewBox="0 0 450.000000 636.000000"
 preserveAspectRatio="xMidYMid meet">
<metadata>
Created by potrace 1.10, written by Peter Selinger 2001-2011
</metadata>
<g transform="translate(0.000000,636.000000) scale(0.050000,-0.050000)"
fill="#ffffff" stroke="none">
<path d="M3689 10861 c-22 -9 -54 -33 -70 -53 -28 -36 -27 -36 21 -5 72 45
164 62 221 39 48 -19 48 -19 4 -21 -25 0 -61 -17 -81 -36 -19 -19 -67 -57
-107 -84 -54 -36 -78 -71 -96 -140 -42 -159 -48 -208 -25 -194 11 7 27 51 35
98 39 237 298 412 437 296 23 -18 32 -19 32 -3 0 66 -274 142 -371 103z"/>
<path d="M3260 10823 c-109 -59 -213 -246 -230 -417 -4 -35 -13 -84 -21 -110
-25 -81 6 -30 47 79 22 58 32 100 22 94 -28 -17 -21 19 11 62 17 22 30 57 31
79 3 133 282 252 390 167 l55 -44 -23 43 c-48 90 -165 109 -282 47z"/>
<path d="M3655 10779 c-41 -22 -75 -49 -75 -61 0 -11 -10 -14 -22 -7 -22 14
-57 -23 -57 -61 0 -11 8 -6 19 10 10 17 26 30 34 31 9 0 61 30 115 65 110 71
102 84 -14 23z"/>
<path d="M3289 10740 c-22 -8 -52 -30 -67 -47 -24 -29 -20 -29 37 0 83 41 151
-8 133 -96 -6 -33 0 -62 17 -76 47 -39 91 -201 93 -340 1 -115 4 -123 20 -67
23 78 -1 230 -61 393 -59 162 -43 210 24 73 29 -60 54 -96 54 -80 1 105 -171
271 -250 240z"/>
<path d="M4150 10730 c-44 -16 -82 -30 -84 -30 -3 0 -35 -45 -72 -100 l-67
-100 -45 48 -45 48 57 20 c44 17 48 21 15 22 -23 1 -87 -36 -144 -83 l-103
-85 -1 -130 c0 -71 9 -143 21 -160 16 -22 18 6 10 105 -9 122 -6 140 38 190
l49 55 2 -90 c1 -49 10 -108 20 -130 14 -29 16 -15 10 50 -5 50 -4 74 2 55 5
-20 17 -31 26 -25 23 14 55 -31 66 -90 7 -36 10 -28 12 27 2 55 13 79 38 86
20 5 50 34 67 64 71 124 243 155 343 62 l65 -61 -70 41 c-163 95 -329 -6 -351
-214 -7 -69 -5 -84 9 -55 11 22 20 65 21 95 4 184 192 231 384 96 l124 -87
-58 78 c-172 236 -317 256 -477 67 -33 -40 -52 -51 -52 -31 0 17 26 60 57 96
31 36 54 76 49 89 -10 27 97 67 181 67 46 0 85 -23 157 -94 52 -51 100 -89
105 -84 18 19 -178 195 -229 206 -27 6 -86 -2 -130 -18z m-261 -242 c19 -28
30 -56 24 -62 -16 -15 -112 61 -112 89 -1 43 53 27 88 -27z"/>
<path d="M3774 10698 c-81 -43 -155 -143 -152 -208 1 -29 7 -23 22 20 45 127
179 214 309 200 70 -8 71 -7 17 8 -91 26 -114 24 -196 -20z"/>
<path d="M2720 10640 c0 -11 17 -20 38 -20 94 0 144 -59 170 -200 l13 -70 -29
64 c-30 67 -121 126 -192 126 -23 0 -37 9 -30 20 17 27 1 25 -76 -8 -68 -29
-197 -152 -159 -152 12 0 -9 -46 -46 -102 -49 -72 -69 -123 -68 -175 l2 -73
24 91 c31 114 94 204 181 258 71 44 123 54 102 20 -9 -13 4 -16 34 -9 175 44
186 -318 15 -495 l-98 -102 -41 52 c-50 64 -50 68 6 82 54 14 214 147 214 178
0 13 -29 -5 -65 -39 -123 -118 -191 -146 -316 -133 -69 8 -118 4 -126 -9 -9
-13 16 -17 72 -11 65 8 78 5 55 -12 -24 -18 -19 -21 27 -17 74 8 163 -99 181
-214 l12 -80 -31 70 c-71 159 -194 239 -290 189 -64 -33 -80 -56 -25 -35 29
11 27 4 -8 -41 -24 -31 -39 -68 -33 -83 5 -15 0 -45 -12 -68 -12 -23 -16 -65
-9 -94 13 -51 15 -49 56 45 53 122 69 147 96 147 14 0 14 -9 2 -25 -32 -41
-46 -95 -25 -95 10 0 20 16 21 35 1 19 9 9 19 -23 16 -54 7 -86 -58 -220 -4
-10 2 -11 14 -4 35 22 27 0 -11 -31 -23 -18 -29 -19 -19 -2 23 38 -17 30 -54
-12 -18 -20 -27 -42 -20 -50 62 -61 289 203 286 331 -1 25 -13 3 -28 -50 -14
-53 -37 -107 -51 -120 -21 -19 -23 -16 -10 16 62 154 -21 341 -114 257 -35
-32 -36 -31 -29 15 5 38 22 50 79 60 40 6 69 6 64 -1 -4 -8 15 -40 43 -72 l50
-59 -43 65 c-52 79 -19 87 37 9 64 -89 69 -147 26 -260 -43 -115 -38 -140 9
-39 l30 65 -13 -80 c-7 -44 -22 -91 -34 -105 -11 -14 -16 -31 -9 -37 63 -63
154 274 109 401 l-28 79 94 95 c185 185 190 557 8 557 -25 0 -49 9 -52 20 -4
12 -40 4 -86 -19 -102 -53 -109 -41 -22 36 153 134 371 -2 371 -231 0 -91 -87
-354 -137 -412 -34 -39 -38 -55 -51 -214 -5 -60 -5 -83 0 -50 16 98 69 249 95
265 29 19 83 114 54 96 -28 -17 -27 -9 8 72 16 37 30 58 32 47 8 -79 36 93 37
230 2 247 -67 380 -197 380 -22 0 -41 -9 -41 -20z"/>
<path d="M3212 10622 c-33 -36 -100 -221 -86 -235 4 -4 27 43 52 104 26 60 65
123 88 139 32 23 35 30 12 30 -18 0 -47 -17 -66 -38z"/>
<path d="M3264 10519 c-26 -42 -15 -128 15 -109 43 26 51 -94 12 -180 l-27
-60 8 80 c7 69 6 73 -10 25 -10 -30 -38 -87 -62 -126 -51 -82 -46 -101 16 -57
47 33 124 167 124 216 0 16 11 32 24 37 18 6 19 33 5 106 -21 109 -63 136
-105 68z"/>
<path d="M4506 10464 c18 -19 47 -70 64 -112 38 -91 57 -87 30 7 -20 71 -73
141 -106 141 -11 0 -6 -16 12 -36z"/>
<path d="M4157 10425 c-28 -30 -57 -73 -64 -95 -12 -39 -11 -39 13 -1 121 193
256 150 420 -136 31 -54 61 -93 66 -87 17 16 -163 284 -223 331 -75 59 -150
55 -212 -12z"/>
<path d="M3602 10384 c-1 -39 -10 -61 -22 -54 -13 8 -13 -5 -1 -37 12 -32 11
-76 -2 -123 -11 -41 -15 -79 -9 -85 7 -6 18 18 25 53 7 36 19 55 26 43 8 -12
10 35 6 104 -9 144 -21 195 -23 99z"/>
<path d="M3425 10347 c18 -68 16 -99 -10 -165 -37 -96 -29 -108 14 -23 39 74
40 181 3 232 -26 35 -26 29 -7 -44z"/>
<path d="M4280 10384 c0 -11 16 -18 35 -17 25 2 55 -39 105 -142 81 -168 118
-194 59 -40 -62 160 -199 297 -199 199z"/>
<path d="M2687 10349 c-20 -15 -49 -28 -64 -28 -55 -2 -162 -66 -195 -118
l-34 -53 58 53 c84 75 154 109 164 78 5 -15 19 -9 37 18 34 48 107 55 107 10
0 -17 -9 -26 -20 -19 -11 7 -36 -15 -56 -48 -42 -69 -104 -122 -228 -192 -47
-27 -71 -50 -52 -50 18 0 92 40 163 89 71 48 135 83 141 76 7 -6 12 -1 12 13
0 13 8 19 18 13 23 -14 42 36 42 108 0 67 -42 89 -93 50z"/>
<path d="M3223 10350 c-2 -22 -21 -79 -43 -126 -43 -95 -18 -96 31 -1 17 33
28 84 23 113 -5 37 -9 41 -11 14z"/>
<path d="M4204 10336 c-30 -30 -30 -85 -2 -216 29 -138 46 -114 20 28 -13 72
-14 131 -2 162 21 56 19 61 -16 26z"/>
<path d="M3363 10274 c-1 -30 -17 -88 -33 -128 -38 -91 -24 -111 20 -27 19 37
29 94 24 137 -5 56 -8 61 -11 18z"/>
<path d="M4262 10205 c2 -52 7 -79 12 -59 7 29 15 31 38 13 35 -30 40 41 7
102 -35 67 -59 43 -57 -56z"/>
<path d="M4093 10248 c-16 -47 66 -296 131 -404 67 -109 63 -57 -5 77 -34 69
-74 180 -88 247 -19 92 -28 112 -38 80z"/>
<path d="M3940 10230 c0 -17 26 -88 57 -157 l57 -126 -101 -35 c-55 -20 -126
-62 -158 -94 -71 -71 -67 -71 -82 3 -12 60 -93 159 -131 159 -11 0 2 -38 29
-85 63 -111 61 -122 -12 -84 -34 17 -77 28 -95 24 -24 -5 -11 -18 40 -43 104
-50 112 -64 127 -236 17 -189 1 -307 -56 -397 l-43 -69 -13 110 c-12 108 -74
272 -94 251 -6 -5 1 -50 14 -99 37 -132 21 -397 -27 -450 -64 -71 -78 -51 -64
93 29 301 36 451 23 536 -22 143 -41 103 -41 -86 0 -185 -18 -285 -50 -285
-11 0 -20 54 -20 120 0 65 -12 153 -27 195 -43 116 -69 287 -54 344 l14 51 16
-49 c9 -27 23 -95 31 -150 l15 -101 2 90 c1 50 -11 126 -27 169 -22 62 -23 86
-4 110 20 26 19 27 -6 8 -23 -18 -39 -17 -69 5 -63 45 -103 33 -44 -13 38 -30
53 -61 53 -105 l0 -64 -38 63 c-52 84 -118 127 -191 125 -60 -3 -60 -3 10 -16
117 -23 201 -128 230 -289 l14 -76 -51 51 c-28 28 -57 71 -65 96 -44 148 -229
198 -229 62 0 -17 14 -12 40 14 73 73 151 10 170 -138 19 -147 51 -237 42
-117 -4 52 -4 95 0 95 28 0 113 -224 120 -318 l8 -112 -39 80 c-22 44 -40 91
-40 105 -1 14 -9 25 -19 25 -28 0 15 -162 69 -253 47 -80 47 -85 19 -220 -34
-162 -70 -526 -70 -702 l0 -125 107 0 c119 0 295 29 374 61 l51 21 -66 134
c-128 262 -126 506 6 699 107 156 341 389 438 436 117 56 23 65 -102 10 -117
-52 -115 -52 -104 14 5 30 4 82 -4 115 -12 56 -14 53 -29 -40 -9 -55 -31 -127
-49 -160 l-32 -60 -6 156 c-8 212 74 343 241 384 75 19 80 55 24 175 -27 58
-49 125 -49 150 0 25 -9 45 -20 45 -11 0 -20 -14 -20 -30z"/>
<path d="M3735 10022 c-12 -44 4 -142 22 -142 7 0 13 41 13 90 0 93 -18 119
-35 52z"/>
<path d="M4303 10007 c-2 -43 15 -85 49 -126 69 -82 87 -63 22 23 -28 36 -54
89 -59 116 -8 43 -10 41 -12 -13z"/>
<path d="M3403 10013 c-13 -15 -17 -33 -9 -40 7 -7 -1 -13 -18 -13 -17 0 -46
-22 -64 -50 -37 -56 -25 -66 21 -20 33 33 127 41 127 11 0 -11 14 -14 31 -8
17 7 49 -5 73 -26 41 -36 41 -36 20 4 -20 39 -71 71 -150 97 -65 21 -13 57 64
45 50 -8 63 -6 42 7 -43 28 -112 24 -137 -7z"/>
<path d="M2191 9875 c-43 -67 -91 -212 -89 -273 1 -34 10 -18 26 48 14 55 45
138 69 185 47 91 43 115 -6 40z"/>
<path d="M3327 9809 c-7 -17 -6 -36 1 -43 6 -7 12 -2 12 11 0 24 64 32 86 10
8 -7 6 -23 -3 -35 -29 -38 -42 -92 -22 -92 10 0 19 14 19 30 0 57 75 15 118
-67 14 -25 30 -42 35 -37 13 13 -49 134 -69 134 -7 0 -29 27 -48 60 -37 65
-109 81 -129 29z"/>
<path d="M2929 9731 c-8 -28 -22 -51 -32 -51 -27 0 -77 -129 -75 -194 1 -44 7
-37 27 37 32 117 48 142 82 129 18 -7 29 11 33 54 l7 64 34 -70 33 -70 -4 70
c-5 91 -85 114 -105 31z"/>
<path d="M4604 9748 c18 -21 43 -64 55 -96 12 -32 27 -52 34 -46 18 18 -59
161 -93 171 -24 7 -24 2 4 -29z"/>
<path d="M4375 9685 c-16 -19 -37 -57 -44 -85 -12 -42 -8 -40 27 15 54 85 76
82 115 -16 36 -92 57 -92 37 0 -24 108 -82 146 -135 86z"/>
<path d="M4536 9669 c24 -17 62 -65 83 -105 32 -59 39 -65 40 -31 1 54 -91
167 -135 167 -25 0 -23 -7 12 -31z"/>
<path d="M4273 9667 c-18 -19 -14 -148 7 -197 11 -27 16 1 13 85 -1 69 -4 125
-5 125 -1 0 -7 -6 -15 -13z"/>
<path d="M4383 9625 c-34 -62 -27 -104 7 -45 l29 50 3 -50 c1 -27 1 -61 0 -74
-10 -74 93 -210 184 -244 68 -26 72 3 5 34 -78 35 -171 177 -159 241 16 79
-38 147 -69 88z"/>
<path d="M2259 9494 c-28 -24 -73 -59 -100 -78 -27 -19 -39 -34 -27 -35 13 -1
62 35 110 78 49 44 84 79 78 80 -5 0 -33 -20 -61 -45z"/>
<path d="M2880 9355 c-22 -36 -40 -81 -40 -100 0 -48 -34 -44 -50 6 -19 58
-106 111 -135 82 -17 -17 -13 -23 18 -23 81 0 138 -118 184 -386 7 -41 22 -76
33 -77 37 -4 110 167 110 256 0 73 6 87 39 87 84 0 121 -248 54 -360 -32 -54
-34 -64 -8 -43 18 15 39 44 46 65 6 21 21 33 32 26 13 -8 13 2 -1 28 -12 23
-22 88 -22 144 0 224 -160 269 -173 48 -2 -46 -21 -118 -40 -161 l-36 -77 -7
110 c-8 128 22 246 77 301 28 28 31 39 11 39 -43 0 -76 -53 -103 -166 -25
-102 -26 -102 -27 -28 -2 82 40 202 92 258 20 22 23 36 9 36 -13 0 -41 -29
-63 -65z"/>
<path d="M3000 9360 c0 -11 22 -20 49 -20 28 0 62 -19 80 -44 17 -25 31 -35
31 -22 0 29 -96 106 -133 106 -15 0 -27 -9 -27 -20z"/>
<path d="M4079 9307 c-74 -50 -160 -132 -184 -177 -11 -22 23 1 77 51 186 172
330 178 344 13 8 -92 44 -98 44 -7 0 131 -161 200 -281 120z"/>
<path d="M2690 9234 c44 -44 71 -94 80 -145 25 -156 49 -231 38 -119 -14 136
-63 264 -114 300 -72 50 -74 34 -4 -36z"/>
<path d="M4120 9238 c-117 -47 -304 -320 -254 -371 5 -5 25 36 44 93 37 112
142 229 224 249 66 17 83 -1 104 -110 l18 -89 2 94 c3 132 -39 173 -138 134z"/>
<path d="M2522 9165 c-12 -30 -30 -95 -39 -145 l-17 -90 -15 95 c-9 52 -11
113 -5 135 6 22 3 40 -7 40 -40 0 -42 -137 -3 -225 49 -112 96 -148 78 -62
-58 292 129 309 228 20 25 -72 36 -88 36 -53 4 130 -125 313 -202 289 -41 -13
-43 -11 -18 18 15 18 18 33 7 33 -11 0 -30 -25 -43 -55z"/>
<path d="M4052 9095 c-87 -114 -121 -279 -73 -354 19 -30 19 -30 48 109 5 22
9 0 11 -48 3 -123 17 -96 42 77 26 183 15 196 -51 59 -44 -93 -50 -98 -38 -38
46 237 138 275 124 50 -14 -204 11 -155 33 65 17 169 -11 191 -96 80z"/>
<path d="M3033 9127 c-7 -8 -13 -28 -13 -45 1 -28 3 -28 20 -2 42 65 19 -119
-24 -193 -25 -41 -33 -68 -20 -59 34 21 104 162 104 210 0 79 -33 122 -67 89z"/>
<path d="M3804 9096 c-13 -13 -23 -69 -21 -125 l2 -101 14 80 c7 44 20 100 29
125 17 51 11 56 -24 21z"/>
<path d="M2607 9049 c-7 -17 -3 -51 9 -75 20 -42 21 -41 23 15 1 56 2 57 30
20 34 -45 41 -24 10 32 -25 47 -56 50 -72 8z"/>
<path d="M3832 9028 c-17 -45 -15 -248 3 -248 8 0 15 63 15 140 0 153 0 154
-18 108z"/>
<path d="M4307 8970 c-13 -55 -20 -103 -16 -108 16 -15 51 107 45 157 -5 38
-12 26 -29 -49z"/>
<path d="M4200 8951 c0 -39 9 -71 20 -71 11 0 20 26 20 59 0 32 -9 64 -20 71
-12 7 -20 -16 -20 -59z"/>
<path d="M2562 8940 c-1 -39 76 -209 89 -196 5 5 -13 58 -40 118 -27 59 -49
95 -49 78z"/>
</g>
</svg>
